<?xml version="1.0" encoding="utf-8"?>
<!-- Generator: Adobe Illustrator 19.2.1, SVG Export Plug-In . SVG Version: 6.00 Build 0)  -->
<svg version="1.1" id="Layer_1" xmlns="http://www.w3.org/2000/svg" xmlns:xlink="http://www.w3.org/1999/xlink" x="0px" y="0px"
	 viewBox="0 0 315 195.1" style="enable-background:new 0 0 315 195.1;" xml:space="preserve">
<style type="text/css">
	.st0{fill:none;}
	.st1{font-family:'BrandonGrotesque-Bold';}
	.st2{font-size:15.2864px;}
	.st3{letter-spacing:5;}
	.st4{font-family:'Rockwell';}
	.st5{fill:none;stroke:#000000;stroke-width:0.3822;stroke-miterlimit:10;}
	.st6{fill:none;stroke:#000000;stroke-width:0.3822;stroke-miterlimit:10;stroke-dasharray:2.2813,2.2813;}
	.st7{fill:#DFB078;}
	.st8{fill:#FFFFFF;}
	.st9{fill:none;stroke:#FFFFFF;stroke-width:0.3822;stroke-miterlimit:10;}
	.st10{fill:none;stroke:#FFFFFF;stroke-width:0.3822;stroke-miterlimit:10;stroke-dasharray:2.2813,2.2813;}
</style>
<g>
	<path d="M307.8,68.4c-0.8-0.9-1.9-0.7-2.4,0.5c-0.9,2.4-1.8,4.8-3.4,6.9c-1.4,1.9-3.2,3.2-5.7,3.5c-0.8,0.1-1-0.2-0.9-0.9
		c0-0.2,0.1-0.4,0.2-0.6c1.6-4,2.1-8.2,1.7-12.4c-0.2-2.3-0.7-4.5-2.2-6.4c-2.5-3.2-5.9-4.2-9.8-3.7c-5.5,0.6-9.5,3.8-12.5,8.2
		c-1.7,2.4-2.7,5.2-3.3,8.1c-0.6,3.2-1.8,6.2-3.7,8.8c-1.4,1.9-3.2,3.2-5.6,3.6c-0.8,0.1-1.1-0.2-0.9-1c0-0.2,0.1-0.4,0.2-0.6
		c1.8-5,2.5-10.1,1.1-15.4c-0.5-2.1-1.6-3.8-3.3-5c-3.5-2.5-7.3-2.7-11.2-1.3c-5.2,1.9-8.8,5.6-11.1,10.6c-1,2.2-1.5,4.6-2.2,6.9
		c-0.9,2.7-1.9,5.3-3.2,7.9c-1.2,2.4-2.7,4.5-5,5.9c-2.3,1.4-4.7,1.4-5.9-0.9c-0.3-0.6-0.6-1.2-0.6-1.9c-0.2-2,0.1-3.8,0.7-5.7
		c1-2.9,2.7-5.5,4-8.3c0.5-1,0.5-2,0.2-3c-0.5-1.5-1.3-2.6-2.5-3.6c-2.1-1.7-4.2-3.4-6.3-5.1c-0.6-0.5-0.9-1.1-0.9-1.9
		c0-1,0-2.1-0.4-3c-0.4-1.1-1.5-1.9-2.7-1.8c-1.8,0.2-3.3,2.1-3.2,4c0.1,1.4,0.8,2.6,1.6,3.8c0.4,0.6,0.8,1.3,0.7,2
		c-0.2,2-0.5,4-0.9,6c-1,4.8-2.4,9.5-4.4,14c-1.1,2.4-2.1,4.7-3.8,6.7c-1,1.2-2,2.3-3.8,2.3c-0.8,0-1.4-0.3-1.6-1.2
		c-0.1-0.6-0.2-1.3-0.2-1.9c0.1-4.9,0.8-9.7,1.5-14.5c0.3-2,0.1-2.3-1.7-2.9c-0.2-0.1-0.5-0.2-0.8-0.2c-1.8-0.3-2.9,0.4-3.2,2.2
		c-0.3,1.8-0.7,3.6-1.1,5.4c-1.1,4.5-2.9,8.7-5.5,12.4c-0.9,1.3-1.9,2.5-3.5,3.1c-1.4,0.6-2.8,0.2-3.7-1c-0.5-0.7-0.8-1.5-0.9-2.3
		c-0.5-2.7-0.3-5.3,0.4-8c1.1-4.4,3-8.2,6.5-11.2c4.5-4,9.7-3.9,14.7-1.5c1.1,0.5,1.6,0.5,2.4-0.4c1.4-1.5,1.2-2.9-0.5-4
		c-0.8-0.5-1.5-0.8-2.4-1.1c-6.6-1.9-12.7-1-18,3.3c-3.4,2.7-6,6.2-7.6,10.3c-0.7,1.8-1.4,3.7-1.9,5.7c-0.5,1.7-0.9,3.3-1.7,4.9
		c-0.7,1.4-1.6,2.8-2.4,4.2c-1.5,2.8-3.6,5.1-6.2,7c-0.4,0.3-0.9,0.9-1.4,0.6c-0.5-0.3-0.3-1.1-0.2-1.6c0.7-3.6,1.1-7.3,1.6-10.9
		c0.4-2.7,0.6-5.5,1.1-8.2c0.6-3.1-0.1-4-3.2-4.1c-1.3-0.1-2.3,0.7-2.5,2.1c-0.1,0.9-0.3,1.8-0.4,2.7c-0.5,3.3-1.5,6.5-2.8,9.5
		c-0.5,1.3-1.2,2.5-1.9,3.8c-0.6,1.1-1.3,2.1-2.2,3c-0.9,0.9-1.8,1.8-3,2.2c-1.3,0.4-2.6,0.1-3.3-1.1c-1.2-1.9-1.4-3.9-1.2-6.1
		c0.4-4.4,1.8-8.5,4.2-12.2c2.4-3.7,5.7-6,10.1-6.5c2.5-0.3,4.8,0.4,7,1.6c1.7,0.9,2.6,0.6,3.6-1.2c0.5-1,0.4-1.9-0.5-2.5
		c-2.5-1.5-5.2-2.4-8.1-2.6c-2.7-0.1-5.3,0.4-7.8,1.3c-4,1.5-7,4.1-9.5,7.3c-2.1,2.9-3.8,6.1-4.6,9.7c-0.9,4.3-2.9,8.1-5.1,11.8
		c-0.8,1.3-1.9,2.3-3.2,3.1c-1.2,0.7-2.2,0.2-2.4-1.2c-0.2-1.8,0.1-3.5,0.3-5.2c0.5-3.8,1-7.7,1.5-11.5c0.3-2.3,0.3-4.5-0.5-6.7
		c-0.9-2.5-2.4-3.8-4.9-3.9c-3.1-0.1-5.9,0.8-8.1,3.1c-1.9,2-3.8,3.9-5.1,6.3c-0.1,0.2-0.2,0.4-0.5,0.5c-0.1-0.3-0.1-0.6,0-0.9
		c0.2-1.5,0.5-2.9,0.7-4.4c0.1-0.9-0.2-1.8-1-2c-1.5-0.5-2.9-0.6-4.3,0.4c-0.5,0.4-0.8,0.9-0.9,1.5c-0.4,3-0.8,6.1-1.3,9.1
		c-0.5,3.4-0.8,6.8-2.5,10c-1.2,2.3-2.1,4.6-3.7,6.6c-0.9,1.2-2,2.3-3.7,2.3c-1,0-1.4-0.3-1.7-1.3c-0.2-0.6-0.2-1.2-0.2-1.8
		c0.1-5,0.9-10,1.5-14.9c0.2-1.4,0-1.8-1.3-2.3c-0.2-0.1-0.4-0.1-0.6-0.2c-1.7-0.6-3.5-0.1-3.9,2.3c-0.5,3.1-1.1,6.2-2.3,9.2
		c-1.4,3.6-3,7-5.5,9.8c-1.2,1.3-2.6,2.3-4.5,1.7c-1.4-0.4-2-1.6-2.3-2.9c-0.5-2.3-0.6-4.7-0.1-7c0.7-3.5,1.9-6.9,4.1-9.8
		c4.1-5.5,9.2-7.6,15.8-5.2c0.5,0.2,0.9,0.4,1.4,0.6c1.7,0.8,3,0.2,3.5-1.7c0.2-0.7,0.1-1.3-0.4-1.8c-0.7-0.7-1.6-1.2-2.5-1.5
		c-2.9-1.1-5.8-1.2-8.8-1c-3.9,0.3-7.3,1.8-10.3,4.3c-3.8,3.2-6.5,7.2-8.1,12c-1.3,4-2.1,8-1.1,12.1c0.4,1.9,1.1,3.7,2.5,5.1
		c2.4,2.3,5.2,2.4,8.1,1.3c2.9-1,5-3,6.5-5.6c0.7-1.2,1.4-2.5,2-3.8c0.1-0.2,0.2-0.5,0.4-0.5c0.4,0.1,0.2,0.4,0.2,0.7
		c0,1.1,0.1,2.1,0.4,3.1c1.2,3.8,4.5,4.6,7.5,3.3c2.6-1.1,4.4-3.1,6-5.4c0.3-0.5,0.6-1.1,1.1-1.6c-0.2,1.5-0.5,3-0.4,4.4
		c0,1,0.6,1.6,1.6,1.7c1.2,0.1,2.5-0.1,3.6-0.4c0.7-0.2,1.2-0.6,1.2-1.4c0-0.6,0.1-1.1,0.2-1.7c0.3-2.6,0.6-5.2,0.9-7.8
		c0.5-3.3,0.7-6.7,2.3-9.8c1.8-3.4,4.3-6.2,7.3-8.5c0.3-0.2,0.6-0.4,0.9-0.5c2.1-1,4,0.3,4,2.6c0,0.8,0,1.6-0.1,2.4
		c-0.4,4.2-1.2,8.3-1.5,12.5c-0.2,2-0.5,4-0.1,6c0.5,2.5,1.6,3.8,3.8,4.1c3.4,0.6,6-0.8,8.2-3.1c1.7-1.7,2.9-3.8,4-5.8
		c0.1-0.2,0.1-0.5,0.4-0.4c0.2,0,0.3,0.3,0.3,0.5c0.1,0.6,0.3,1.2,0.5,1.9c1,2.8,3.5,4.7,6.2,4.7c4,0,7.1-1.6,9.4-4.9
		c1-1.4,1.8-2.8,2.6-4.2c0.1-0.4,0.2-0.8,0.6-1.2c0.1,1-0.2,1.8-0.4,2.6c-0.3,2.4-0.6,4.7-1.1,7c-0.1,0.6-0.5,1.1-1,1.5
		c-0.7,0.4-1.4,0.9-2.1,1.3c-2.2,1.5-4.6,2.7-6.5,4.6c-2.3,2.3-4.3,4.7-4.7,8.1c-0.3,2.7,0.9,5.4,3,6.4c2.2,1,4.6,1.2,7,0.5
		c4-1.1,6-4.1,7.1-7.8c1-3.4,1.7-6.9,2.1-10.4c0.1-1.1,0.5-2,1.6-2.6c0.6-0.3,1-0.8,1.6-1.1c3.5-2.4,6.2-5.6,8.4-9.2
		c0.4-0.7,0.7-1.4,1.1-2.1c0.1-0.1,0.1-0.4,0.4-0.3c0.2,0,0.1,0.2,0.2,0.4c0.1,0.7,0.5,1.4,0.8,2c1.8,4.1,4.3,5.1,8.1,4.6
		c3.7-0.5,6.3-2.8,8.3-6c0.8-1.2,1.5-2.5,2.1-3.8c0.1-0.2,0.2-0.6,0.5-0.5c0.3,0.1,0.2,0.5,0.2,0.7c0,1.1,0.1,2.2,0.5,3.3
		c1.2,3.3,3.6,4.2,6.5,3.4c3-0.8,5.1-3.1,6.8-5.6c2.4-3.4,3.8-7.3,5.3-11.1c1.6-4,2.5-8.1,3.3-12.4c0.1-0.6,0.1-1.3,0.3-1.9
		c0.2-1.2,0.7-1.4,1.6-0.7c0.9,0.7,1.7,1.5,2.5,2.3c1.2,1.2,1.3,2.7,0.6,4.2c-1.2,2.4-2.4,4.9-3.5,7.4c-1.4,3-1.9,6.1-1,9.3
		c0.9,3.2,3.3,5.2,6.3,5.7c3.9,0.6,7.1-0.8,9.8-3.6c1.9-2,3.1-4.5,4.3-7c0.2-0.4,0.3-0.8,0.6-1.1c0.1,0.2,0.2,0.2,0.2,0.3
		c0.1,0.5,0.3,1,0.4,1.4c0.7,2.7,2.2,4.8,4.7,6.1c1.9,1,4,1.4,6.1,1.1c1.4-0.2,2.7-0.6,4.1-1c3-1,5.4-2.8,7.4-5.2
		c0.7-0.9,1.4-1.2,2.6-1.1c1.8,0.2,3.5-0.2,5.1-1c2-1,3.6-2.5,4.8-4.4c0.2-0.4,0.4-0.7,0.9-1c0.2,0.8,0.4,1.5,0.6,2.2
		c0.9,3.2,2.8,5.5,6.1,6.5c1.9,0.6,3.9,0.8,5.9,0.3c1-0.2,1.9-0.6,2.8-0.9c3.1-0.9,5.4-2.8,7.5-5.2c0.7-0.8,1.4-1.2,2.5-1.1
		c2,0.1,3.9-0.3,5.7-1.4c2.2-1.3,3.8-3.2,5-5.3c1.1-2,2.1-4,2.7-6.3C308.2,69.3,308.2,68.8,307.8,68.4z M181.6,71.4
		c0.1-0.2,0.2-0.4,0.3-0.6c0.3-0.6,0.7,0.2,1-0.1c0.1-0.7,0.7-0.5,1.1-0.6c0.1-1.1,0.1-1,1.3-0.8c0.8,0.1,1,0.6,1.5,1
		c-0.5,0.3-1,0.3-1.3,0.7c0.2,1.1,0.1,1.2-0.8,1h0c-0.1,0.1-0.2,0.2-0.3,0.3c0.1,0.2,0.3,0.4-0.1,0.4c-0.4,0.1-0.7,0-1.1-0.2
		c-0.1,0-0.3-0.1-0.4-0.1c-0.3,0,0.1,0.7-0.5,0.4l0,0c0,0-0.1,0-0.1,0c-0.4,0.1,0,1.1-0.6,0.7c-0.5-0.3-1-0.7-1-1.5
		C180.8,71.3,181.4,71.7,181.6,71.4z M180.2,73c0.2,0,0.3,0.1,0.3,0.3c0,0.3-0.1,0.5-0.4,0.6c-0.2,0-0.4-0.1-0.3-0.3
		C179.8,73.3,180,73.2,180.2,73z M151.8,74.1c0.1,0,0.3,0,0.3,0.2c0,0.3-0.3,0.3-0.5,0.4c-0.2,0-0.3,0-0.3-0.2
		C151.4,74.3,151.6,74.2,151.8,74.1z M149.9,75.6c0.2-0.1,0.3,0.1,0.3,0.3c0,0.2,0,0.4-0.3,0.5c-0.2,0-0.2-0.2-0.2-0.4
		C149.6,75.8,149.7,75.7,149.9,75.6z M146.6,75.6c0.5-0.2,1.1-0.2,1.7-0.3l0,0c0.6,0.3,0.3,0.6,0,0.9c0,0,0,0.1,0,0.1
		c0.5,0.6-0.2,0.9-0.3,1.3c-0.1,0.4-0.5,0.1-0.7,0.1c-0.6,0,0-0.5-0.3-0.7c-0.1-0.3-0.3-0.6-0.5-0.8C146.4,76,146.3,75.8,146.6,75.6
		z M145.5,75.9c0.2,0.1,0.6,0.1,0.6,0.5c-0.2,0.3,0,0.9-0.4,0.9c-0.4,0-0.3-0.6-0.5-0.9C145.1,76.1,145.3,75.9,145.5,75.9z
		 M74.1,85.2c0.1-0.2,0.2-0.4,0.2-0.6c0.1-0.2,0.2-0.3,0.5-0.2c0.2,0.1,0.4,0.1,0.6-0.1c0.1-0.1,0.1-0.1,0.2-0.1
		c0.3,0,0.7-0.5,1-0.2c0.3,0.3-0.2,0.6-0.2,0.9c0.1,0,0.1,0,0.2,0c0.1,0,0.2,0,0.3-0.1c0-0.3,0.1-0.6,0.1-0.9c0-0.3-0.4-0.6,0-0.9
		c0.3-0.2,0.5-0.1,0.7,0.3c0.2,0.3,0.6-0.4,0.9,0.1c-0.3,0.2-0.7,0.6-0.9,0.9c0,0.1,0,0.7,0,0.7h0c0.1,0-0.7-0.6-0.7-0.6
		c0,0,0,0,0,0l1.1,0.6h0.1l0,0h-0.3c0,0,0.1-0.3,0.1-0.3c0.1-0.9,0.1-0.8,0.8-0.6c-0.4,0.4-1.7,0.6-1.7,0.3c0,0,0,0,0,0
		c0,0,0.5,0,0.5,0c0,0.5,0.8,1.2-0.3,1.3c-0.2,0-0.2,0.1-0.4,0.1c0,0.2,0.4,0.4,0,0.4c-0.3,0.1-0.6,0.1-1-0.1
		c-0.2-0.1-0.3-0.1-0.5-0.2c-0.3,0,0.1,0.7-0.5,0.4c0,0-0.1,0-0.1,0c-0.4,0.1,0,1.1-0.6,0.7c-0.5-0.3-1-0.7-1-1.5
		C73.3,85.1,73.9,85.5,74.1,85.2z M72.7,86.8c0.2-0.1,0.2,0.1,0.2,0.3c0,0.2-0.1,0.5-0.4,0.6c-0.2,0-0.4-0.1-0.3-0.3
		C72.3,87.1,72.5,86.9,72.7,86.8z M84.7,100.1c0.2,0.3,0.3,0.5,0.4,0.6c0.1,0.1,0.3,0.2,0.2,0.4c0,0.1-0.2,0.1-0.3,0.1
		c-0.2,0-0.3-0.1-0.3-0.3C84.7,100.6,84.5,100.4,84.7,100.1z M85.1,103.5c-0.3,0.1-0.6,0.3-0.8,0.6c0.1,0.2,0.5,0.4,0.2,0.5
		c-0.2,0.1-0.9,0.3-0.9-0.4c0.1-0.5,0-1.3,0.9-1c-0.2-0.5-1-0.8-0.5-1.3c0.5-0.4,1,0.1,1.3,0.6C85.8,103.3,85.8,103.3,85.1,103.5z
		 M121.4,90.5c0,0-0.1,0.2-0.2,0.1c-0.1,0-0.3-0.1-0.3-0.1c0.1-0.5-0.1-1-0.1-1.4c0-0.1,0.1-0.2,0.3-0.2c0.2,0.1,0.4,0.3,0.4,0.5
		C121.6,89.8,121.3,90.2,121.4,90.5z M122,86.8c-0.1,0.2-0.1,0.4-0.2,0.5c0.3,0.6,0.1,0.7-0.5,0.7c-0.6,0.5-0.8,0-1.1-0.4
		c0.1-0.2,0.3-0.4,0.1-0.7c0-0.2-0.1-0.3-0.1-0.5c-0.2-0.3,0.3-0.6,0.1-0.9c0.1-0.3-0.1-0.8,0.3-1.1c0-0.1,0-0.1,0-0.2
		c-0.3,0-0.7,0.2-0.9-0.3c-0.2-0.4,0.4-0.4,0.4-0.6c0.1-0.8,0.3-0.9,0.6-0.1c0.1,0,0.1,0,0.2,0c0-0.3-0.3-0.6,0.1-0.7
		c0.3-0.1,0.5,0.1,0.5,0.4c0.2,0.1,0.4,0.2,0.6,0.3c0.8,0.4,0.3,0.8,0,1.3c-0.2,0.2-0.3,0.3-0.5,0.5c-0.2,0.3,0,0.3,0.2,0.2
		c0.3-0.2,0.7-0.7,0.9-0.5c0.4,0.3-0.2,0.7-0.3,1.1C122.4,86.3,122.2,86.6,122,86.8L122,86.8z M150.3,114.3
		c-0.4,2.6-0.7,5.2-1.9,7.6c-0.5,1-1.2,1.9-2.2,2.6c-1.5,1.1-3.5,0.4-3.7-1.4c0-0.9,0.2-1.8,0.6-2.7c1.5-2.8,3.6-5,6.2-6.7
		c0.2-0.1,0.4-0.3,0.7-0.2C150.4,113.7,150.3,114,150.3,114.3z M153.4,114.9c-0.2,0.3,0.6,1-0.4,1.1c0,0.2,0.1,0.7-0.1,0.7
		c-0.5-0.1-1.1,0.1-1.4-0.3c-0.3-0.3,0.3-0.4,0.4-0.6c-0.6-0.8-0.6-0.9,0.5-1.1c-0.2-0.1-0.5-0.2-0.6-0.4l0,0h0
		c-0.2-0.4-0.1-0.8,0.2-1.2c0-0.1,0.1-0.2,0.1-0.3c-0.3-0.1-0.7,0-0.7-0.4c0-0.5,0.6-0.3,0.7-0.6c0-0.4,0.2-0.5,0.6-0.6
		c0.3-0.1,0.4,0.2,0.6,0.4c0.1,0.2,0.2,0.3,0.3,0.5c0.7,0.3,0.8,0.7,0.2,1.2c0.2,0.1,0.4,0.2,0.5,0.3
		C154.3,114.2,154.1,114.8,153.4,114.9z M154.3,104.7c0,0-0.2-0.1-0.2-0.2c0-0.4,0.2-0.6,0.8-0.8
		C154.7,104.3,154.5,104.5,154.3,104.7z M191.8,85.1c0.2,0,0.3,0.2,0.3,0.4c0,0.2-0.1,0.3-0.3,0.3c-0.2,0-0.3-0.2-0.3-0.4
		C191.6,85.2,191.7,85,191.8,85.1z M191.1,90.4c0.2-0.4,0.2-0.9,0.1-1.3c0.3,0.4,0.9,0.6,0.4,1.2c0.2,0.1,0.4,0.2,0.4,0.6
		C191.7,90.6,191.1,91.2,191.1,90.4z M192,88.9c-0.2-0.2-0.5-0.3-0.4-0.7c0-0.1,0.2-0.2,0.3-0.1C192.2,88.3,192.2,88.6,192,88.9z
		 M192.1,86.4c0.1,0,0.1,0,0.2-0.1c0.1,0.2,0.3,0.4,0.4,0.6c0.1,0.1,0.3,0.2,0.2,0.3c0,0.1-0.2,0.1-0.3,0.1c-0.2,0-0.3-0.1-0.4-0.3
		C192.1,86.9,192.1,86.6,192.1,86.4z M192.8,89.6c-0.5,0.1-0.4-0.3-0.5-0.6c0-0.2,0.1-0.4,0.2-0.4c0.4,0.1,0.5,0.5,0.8,0.7
		C193.2,89.6,193,89.6,192.8,89.6z M215.7,82c0.3,0.5,0.6,0.7,0.4,1.1c0,0.1-0.2,0.1-0.3,0C215.4,82.8,215.6,82.5,215.7,82z
		 M214.1,91.2c-0.1-0.3,0.2-0.4,0.4-0.4c0.3-0.1,0.5,0.1,0.6,0.4c0,0.3-0.1,0.3-0.3,0.3C214.5,91.5,214.2,91.5,214.1,91.2z
		 M215.8,92.7c-0.4-0.1-0.6-0.3-0.9-0.9c0.5,0.3,0.9,0,1,0.6C216,92.5,215.9,92.7,215.8,92.7z M215.9,88.6c-0.2,0.3-0.9,0.6-0.9,0.6
		c0,0.1,0,0.2,0,0.3c0,0.1,0.1,0.2,0.1,0.3c0.1,0,0.2,0,0.4,0.1c-0.3,0.5-0.1,0.7,0.4,0.9c0.1,0-0.1,0.4-0.4,0.3
		c-0.2-0.1-0.5-0.2-0.6-0.4c-0.1,0-0.2-0.1-0.3-0.1c-0.5,0.1-0.9-0.1-1-0.5c-0.1-0.4,0.4-0.4,0.6-0.6c0.1-0.1,0.2-0.1,0.4-0.2
		c-0.1-0.1-0.1-0.2-0.2-0.2l0,0l0-0.1c-0.6,0.5-0.7,0.1-0.7-0.4c-0.3-0.6,0.2-0.8,0.5-1c-0.2,0-0.5,0.1-0.7,0
		c-0.3,0-0.6-0.2-0.5-0.5c0.1-0.4,0.6-0.7,0.8-1.1c0.1-0.2,0.6-0.2,0.9,0.2l0,0c0.3,0.2,0.7,0.5,1,0.7c0.1,0,0.1,0.1,0.2,0.1
		C216.3,87.9,216.3,88.2,215.9,88.6z M221.7,94.2c-0.2,0.3-0.5,0.3-0.9,0.1c0.4-0.2,0.5-0.5,0.9-0.3C221.7,94,221.7,94.2,221.7,94.2
		z M254.3,77.9c-0.1,0.7-0.2,1.4-0.4,2.1c-0.2,0.6-0.6,1-1.2,0.8c-1.1-0.2-1.9,0.2-2.5,1.1c-0.6,1-0.4,2,0.2,3
		c0.8,1.2,0.8,1.4-0.3,2.4c-1.3,1.2-2.7,2.4-4.5,2.6c-2.5,0.4-4.4-0.8-5.2-3.1c-1-2.8-1.2-5.7-0.7-8.7c0.5-3.2,1.6-6.3,3.3-9.1
		c1-1.7,2.5-2.8,4-4c1.4-0.8,2.9-0.8,4.4-0.4c1.7,0.5,2.5,1.9,2.9,3.5C255.1,71.4,254.9,74.7,254.3,77.9z M257.3,65.7
		c-0.3,0.2-0.6,0-0.8-0.4c0,0-0.1,0-0.1,0c0,0.1,0,0.1,0,0.2c-0.4,0.9-1.1,0.2-1.6,0.1c-0.5-0.1-0.6-0.8-0.4-1.2
		c0.2-0.5,0.5-0.2,0.8,0c0,0,0.1,0,0.1,0c0.1-0.1,0.2-0.1,0.4-0.2c-0.5-0.3,0-0.6,0.1-0.9c-0.1-0.1-0.1-0.1-0.2-0.2
		c-0.3,0.5-0.7,0.6-1.2,0.3c-0.2-0.1-0.4-0.3-0.2-0.5c0.4-0.3,0.4-0.5,0.2-0.8c0-0.1,0-0.3,0.1-0.3c0.3-0.1,0.4,0.2,0.6,0.3
		c0.2,0,0.4,0,0.6-0.1c0.6,0.5,0.9,1.1,1.5,1.5c0.6,0.4,0,0.7-0.3,0.9c0.1,0.2,0.1,0.3,0.2,0.5C257.2,65.2,257.6,65.4,257.3,65.7z
		 M258.9,69.6c-0.3,0-0.4-0.3-0.5-0.5c-0.1-0.2,0-0.4,0.3-0.4c0.3,0,0.4,0.3,0.5,0.5C259.1,69.4,259.1,69.6,258.9,69.6z M291,57.7
		c0.2-0.3,0.4-0.4,0.6-0.2c0.2,0.2,0.3,0.4,0.2,0.7c-0.3,0.5-0.7,0.8-1.3,0.4C290.7,58.3,290.9,58,291,57.7z M290.2,75.2
		c-0.2,0.8-0.6,1.3-1.5,1.1c-1-0.2-1.7,0.2-2.2,1c-0.5,0.8-0.5,1.8,0,2.7c1,1.8,1,1.9-0.6,3.3c-1.2,1-2.4,1.9-4,2.1
		c-2.4,0.3-4.4-0.8-5.2-3.1c-1.2-3.3-1.2-6.7-0.5-10.1c0.6-2.8,1.6-5.4,3.2-7.8c1-1.6,2.4-2.8,4-3.8c1.8-1.1,4.8-0.7,6.1,0.7
		c1,1.1,1.2,2.5,1.4,3.9c0,0.1,0,0.3,0.1,0.4C291.3,68.8,290.8,72,290.2,75.2z M293.6,61.1c-0.2,0.1-0.5,0-0.7-0.1
		c-0.1,0-0.3,0-0.4,0c-0.5,0.2-0.9-0.2-1.4-0.2c-0.3-0.1,0-0.5-0.2-0.6c-0.3-0.2-0.5-0.3-0.2-0.6c0.4-0.4,0.4,0.2,0.6,0.3
		c0-0.1,0.1-0.1,0.1-0.2c0.1-0.1,0.2-0.2,0.4-0.3l0,0c0-0.5-0.1-1.1,0.7-1.1c0.2,0.1,0.3,0.2,0.5,0.3c0.6,0.3,1,0.6,0.2,1.2
		C294.2,60.3,294.2,60.4,293.6,61.1z M295,64.9c-0.2-0.1-0.4-0.3-0.5-0.6c0-0.1,0.1-0.3,0.3-0.3c0.3,0,0.5,0.3,0.5,0.6
		C295.3,64.8,295.2,65,295,64.9z"/>
	<path d="M65.3,119.2c-1.5-0.1-3-0.3-4.3-1.1c-2.6-1.7-4.1-4.2-5.4-6.9c-1.6-3.5-2.6-7.1-3.9-10.7c-1-2.8-2.5-5.2-5.2-6.7
		c-0.9-0.5-0.9-0.7-0.1-1.3c0.8-0.6,1.8-1.1,2.5-1.7c3.5-3,6.2-6.6,8.3-10.7c1.7-3.2,3-6.6,4-10.1c0.4-1.4,1-2.7,1.2-4.1
		c0.1-0.6,0.2-1.3-0.3-1.8c-1.6-1.6-5.1-0.9-5.8,1.2c-0.9,2.7-1.6,5.5-2.6,8.2c-1.6,4.4-3.7,8.5-6.7,12.2c-1.8,2.2-4,3.9-6.5,5.1
		c-1,0.5-1.5,0.1-1.3-1c0.2-1.3,0.5-2.5,0.6-3.8c0.4-4.1,1.2-8,1.7-12.1c0.2-2.1,1.1-4,1.2-6.1c0-0.8-0.2-1.5-0.9-1.9
		c-1.7-1-4.7-0.1-5.5,1.6c-1.6,3.2-4.2,5.5-7,7.5c-2.6,1.9-5.5,3.5-8.3,5.1c-2.5,1.4-5,2.9-6.9,5.2c-1.6,2-2.3,4.2-2.1,6.6
		c0.4,4.8,4.5,8,9.3,7.4c1.2-0.2,1.9-0.8,2-1.9c0.1-1-0.3-1.5-1.5-2c-1.5-0.5-2.8-1.1-3.2-2.8c-0.4-1.3-0.3-2.6,0.2-3.9
		c1-2.6,3.2-4,5.3-5.4c3.4-2.2,6.7-4.6,9.5-7.6c0.5-0.5,0.9-1.1,1.5-1.7c0.3,0.3,0.2,0.5,0.2,0.8c-0.7,3.6-1,7.2-1.6,10.7
		c-0.6,3.6-0.8,7.2-1.4,10.8c-0.6,3.1-0.9,6.3-1.4,9.4c-0.5,2.9-0.9,5.7-2.2,8.4c-1,2-2.1,3.7-4.6,4.3c-2.5,0.5-5.3-1-6.1-3.4
		c-0.9-2.6-0.4-5,0.7-7.3c0.6-1.2,0.4-1.9-0.4-2.5c-1.2-0.8-2.5-0.8-3.3,0c-1.9,2.1-3.1,4.5-3.2,7.3c-0.2,3.2,0.7,6.1,3.1,8.3
		c1.9,1.7,4.3,2.4,6.9,2.4c5.9,0,10.4-2.9,12.6-8.5c1.9-5,2.8-10.2,3.4-15.5c0.1-0.6,0.1-1.2,0.3-1.7c0.2-0.7,0.6-1.3,1.4-1.3
		c0.7,0,1.3,0.1,2,0.3c2.3,1,3.7,2.7,4.7,4.9c1.2,2.7,2.2,5.5,3.2,8.4c1,3,2.2,5.9,3.9,8.6c2.3,3.7,5.5,5.7,9.8,5.7
		c2.5,0,3.5-0.8,3.7-3.1C66.9,119.8,66.5,119.3,65.3,119.2z M51.9,80c0-0.1,0.1-0.1,0.1-0.2c0.3-0.5,1-0.4,1.3-0.7
		c-0.2-0.6,0.4-1.5,1.2-1.7c0.2-0.1,0.5,0,0.6-0.3c0-0.2,0-0.4,0.3-0.4c0.3,0.1,0.4,0.2,0.4,0.5c0.2,1-0.1,1.7-1.1,2.2
		c0.3,0.5-0.5,0.6-0.4,1c-0.3,0.4,0.1,0.9-0.4,1.3c-0.3,0.2-0.6,0.4-0.3,0.9c0.1,0.2,0,0.4-0.2,0.6c-0.4,0.2-1.2-0.1-1.2-0.6
		c0-0.4,0.3-0.1,0.5-0.2c0.1-0.1,0.3-0.2,0.3-0.4c-0.1-0.2-0.3-0.1-0.4-0.1c-0.5,0.1-0.7-0.1-0.8-0.5c-0.1-0.3,0-0.6,0.2-0.9
		C51.9,80.4,51.8,80.2,51.9,80z M17.1,87.9c-0.3,0.1-0.3-0.3-0.4-0.4c-0.2-0.3-0.4-0.4-0.6,0c0.1,0.4,0.1,0.8-0.4,0.4
		c-0.2-0.1-0.5-0.1-0.5-0.5c0.4-0.4,0.7-0.8,1.1-1.2c0.4,0.1,0.2,0.7,0.7,0.7c0.1-0.3-0.1-0.9,0.5-1c0.4-0.1,0.3,0.3,0.3,0.6
		c0,0.3,0.1,0.6,0.1,0.9C18,87.8,17.4,87.7,17.1,87.9z M19.4,83.5c-0.2,0-0.3,0-0.3-0.2c0-0.3,0.2-0.4,0.4-0.5
		c0.2,0,0.3,0.1,0.3,0.2C19.7,83.2,19.7,83.4,19.4,83.5z M34.6,90.1L34.6,90.1L34.6,90.1c0.5-0.2-0.1-0.9,0.6-1c0.2,0,0.4,0,0.5-0.1
		c0.1-0.1,0.2-0.2,0.4-0.4c0,0.3-0.1,0.6,0.2,0.8c0,0.2,0,0.5-0.1,0.7c0.4,0.1,1,0.1,0.9,0.5c-0.1,0.5-0.5,1-1.2,0.9
		c-0.1,0-0.2,0.1-0.3,0.1c0.1,0.5-0.1,0.8-0.6,0.8c-0.5-0.1-0.4-0.5-0.4-0.8c0-0.2,0.1-0.4,0.2-0.6c0-0.1,0.1-0.2,0.1-0.4
		c-0.3,0-0.7,0.1-0.7-0.4C34.1,90.1,34.3,89.9,34.6,90.1z M35.2,97c-0.4,0-0.3-0.3-0.4-0.6c0-0.2-0.2-0.5,0.2-0.6
		c0.3,0,0.4,0.4,0.5,0.6C35.6,96.8,35.4,97,35.2,97z M36,93c-0.2,0.2,0,0.4,0.1,0.5c0.3,0.5-0.5,1.1,0.1,1.5c-0.1,0.2-0.3,0.2-0.4,0
		c-0.1-0.1-0.2-0.4-0.4-0.4c0.1,0.3,0.1,0.6-0.3,0.5c-0.4,0-0.9-0.2-0.7-0.8c0.1-0.2,0.4-0.3,0.1-0.6c-0.6-0.6-0.3-0.8,0.4-0.9
		c0.3,0,0.6-0.1,0.9-0.2c0.2-0.7,0.7-1,1.5-0.9C37,92.4,36.9,93.2,36,93z M48.9,99.6c0.3,0.4,0.8,0.4,1,0.8c0.1,0.1-0.1,0.3-0.2,0.3
		c-0.3,0.1-1-0.6-1-0.9C48.7,99.9,48.8,99.8,48.9,99.6z M50.4,103.4c-0.4-0.1-0.3,0.2-0.4,0.4c0.2,0.1,0.5,0.3,0.3,0.5
		c-0.2,0.2-0.6,0.3-0.9,0.2c-0.4-0.1-0.1-0.4-0.1-0.6h0h0c0.2-0.6-0.5-0.6-0.7-1c0.5-0.2,1.2,0.6,1.4-0.3c-0.1,0-0.1-0.1-0.2-0.1
		c-0.5,0.5-0.5-0.2-0.7-0.3c-0.2-0.1-0.2-0.3-0.1-0.4c0.3-0.2,0.4,0.1,0.7,0.2c0.6,0,1.3,0,1.2,0.9C51,103.5,51,103.5,50.4,103.4z"
		/>
	<path d="M152,98.7c0.5,0.4,0,1,0.2,1.4c0-0.4,0.2-0.8,0.1-1.2C152.4,98.7,152.3,98.6,152,98.7z"/>
	<path d="M152,98.7c0.3-0.1,0.3,0,0.4,0.3c0,0.4-0.1,0.8-0.1,1.2c0.2-0.8,0.5-1.6,0.4-2.6C152.2,98,152.1,98.3,152,98.7z"/>
	<path d="M182.9,72.3c0.1,0,0.3,0.1,0.4,0.1c0.2-0.9,0.7-0.4,1.1-0.3c0.1-0.1,0.2-0.2,0.3-0.3h0h0c-0.2-0.3-0.5-0.4-0.6-0.8
		c0.6,0.4,0.8-0.6,1.4-0.2c0.3-0.4,0.8-0.4,1.3-0.7c-0.5-0.3-0.8-0.8-1.5-1c-1.2-0.2-1.2-0.3-1.3,0.8c0.2,0.5,0,0.9-0.4,1.1
		c-0.4,0.2-0.5-0.2-0.7-0.5c-0.3,0.3-0.8-0.5-1,0.1C182.8,71,183.1,71.5,182.9,72.3z M184.7,69.2c0.5,0,0.2,0.5,0.5,0.7
		c0.1,0.2,0,0.3-0.2,0.4c-0.4,0.1-0.5-0.3-0.6-0.6C184.2,69.4,184.4,69.2,184.7,69.2z"/>
	<path d="M153.3,112.9c0.1-0.2-0.1-0.4-0.2-0.6c-0.1,0-0.3-0.1-0.4-0.1c0,0.3,0,0.7-0.4,0.6c0,0.1-0.1,0.2-0.1,0.3
		c0.1,0.1,0.2,0.1,0.3,0.2c0.2,0.2,0.5,0.5,0.3,0.8c-0.2,0.3-0.5,0.2-0.8,0.1l0,0c0.1,0.3,0.4,0.3,0.6,0.4c0.6,0.2,0.8,0.6,0.5,1.2
		c0,0.1,0,0.1,0.1,0.2c1-0.1,0.1-0.8,0.4-1.1c-0.3-1,0.5-1,1.1-1.2c-0.2-0.1-0.4-0.2-0.5-0.3C153.6,113.4,152.8,114,153.3,112.9z"/>
	<path d="M293.2,59.9c0.8-0.6,0.4-0.9-0.2-1.2c-0.2-0.1-0.4-0.2-0.5-0.3c0,0.5,0,1-0.7,1.1l0,0l0,0c-0.1,0.1-0.2,0.2-0.4,0.3
		c0.5,0.3,1.1,0.5,1.1,1.2c0.1,0,0.3,0,0.4,0c-0.1-0.4-0.6-0.8-0.3-1c0.4-0.2,0.4,0.5,0.8,0.7c0.1,0,0.1,0.3,0.2,0.5
		C294.2,60.4,294.2,60.3,293.2,59.9z"/>
	<path d="M85.3,102.5c-0.3-0.5-0.8-1-1.3-0.6c-0.5,0.4,0.3,0.8,0.5,1.3c-1-0.3-0.8,0.5-0.9,1c0.2,0,0.5-0.1,0.7-0.1
		c0.1-0.3,0.4-0.5,0.8-0.6C85.2,103.2,84.5,102.6,85.3,102.5z"/>
	<path d="M122,85.4c-0.2,0-0.4,0-0.2-0.2c0.1-0.2,0.3-0.3,0.5-0.5c-0.2,0.1-0.4,0.2-0.6,0.2h0l0,0c-0.3-0.2-0.3-0.6-0.7-0.8
		c-0.1,0.1-0.1,0.1-0.2,0.2c0,0.1,0,0.1,0,0.2c0.1,0.1,0.2,0.2,0.3,0.3c0.1,0.2,0.4,0.4,0.2,0.7c-0.2,0.3-0.5,0.2-0.8,0.1
		c0.2,0.3-0.3,0.6-0.1,0.9c0.6-0.2,1.3-0.6,1.7,0.3c0.2-0.3,0.4-0.5,0.6-0.8C122,86.2,122,85.8,122,85.4z"/>
	<path d="M256.8,64.6c0.3-0.3,0.9-0.5,0.3-0.9c-0.6-0.4-1-1.1-1.5-1.5c0.2,0.3,0.2,0.7,0,1l0,0l0,0h0h0c0,0,0,0,0,0
		c0.1,0.1,0.1,0.1,0.2,0.2c0.1-0.1,0.3-0.3,0.5-0.2c0.2,0.1,0.1,0.3,0.1,0.5c-0.1,0.3-0.3,0.5-0.6,0.6c-0.1,0.1-0.2,0.1-0.4,0.2
		c0.4,0.3,0.8,0.5,1.1,0.9c0,0,0.1,0,0.1,0C256.7,65.1,255.7,64.5,256.8,64.6z"/>
	<path d="M181.7,73.4c0.7,0.4,0.3-0.6,0.6-0.7c0,0,0.1,0,0.1,0c-0.5-0.3-0.7-0.7-0.8-1.3c-0.2,0.3-0.8-0.1-0.9,0.5
		C180.6,72.7,181.2,73.2,181.7,73.4z"/>
	<path d="M74.2,87.2c0.7,0.4,0.3-0.6,0.6-0.7c0,0,0.1,0,0.1,0c-0.5-0.3-0.7-0.7-0.8-1.3c-0.2,0.3-0.8-0.1-0.9,0.5
		C73.1,86.5,73.7,87,74.2,87.2z"/>
	<path d="M182.4,72.7L182.4,72.7L182.4,72.7c0.6,0.3,0.2-0.5,0.5-0.4c-0.4-0.4-0.7-1-1-1.4c-0.1,0.2-0.2,0.4-0.3,0.6
		C182.1,71.7,182.6,72,182.4,72.7z"/>
	<path d="M181.8,70.8c0.3,0.5,0.6,1,1,1.4C183.1,71.5,182.8,71,181.8,70.8z"/>
	<path d="M182.4,72.7L182.4,72.7c0.1-0.7-0.3-1-0.8-1.3C181.7,72,181.9,72.4,182.4,72.7z"/>
	<path d="M74.9,86.5c0.5,0.3,0.2-0.5,0.5-0.4c0.2-0.8-0.1-1.3-1.1-1.4c-0.1,0.2-0.2,0.4-0.2,0.6C74.6,85.5,75,85.8,74.9,86.5z"/>
	<path d="M74.9,86.5c0.1-0.7-0.3-1-0.8-1.3C74.2,85.7,74.4,86.2,74.9,86.5z"/>
	<path d="M214.6,86.1L214.6,86.1c-0.3-0.3-0.8-0.4-0.9-0.2c-0.2,0.4-0.6,0.7-0.8,1.1c-0.1,0.2,0.2,0.5,0.5,0.5c0.2,0,0.5,0,0.7,0
		C214.2,87,214.3,86.5,214.6,86.1L214.6,86.1z"/>
	<path d="M75.7,85.2c0.3,0.3,0.1,0.6-0.3,0.8c0.2,0.1,0.3,0.1,0.5,0.2c0-0.8,0.1-0.8,1-0.4c0.2,0,0.4-0.1,0.6-0.1
		c-0.3-0.3-0.8-0.4-1-0.9c-0.1,0-0.1,0-0.2,0c-0.6,0.3-0.8,0-0.9-0.6c-0.2,0.2-0.3,0.3-0.6,0.1c-0.2-0.1-0.4,0-0.5,0.2
		C75,84.4,75.3,84.8,75.7,85.2z"/>
	<path d="M75.4,86c0.4-0.2,0.5-0.5,0.3-0.8c-0.3-0.4-0.7-0.8-1.3-0.6C75.3,84.8,75.6,85.3,75.4,86z"/>
	<path d="M147,77.1c0.5-0.2,0.7-0.7,1.3-0.8c0,0,0-0.1,0-0.1c-0.2,0-0.5,0.1-0.8-0.1c0.3-0.3,0.5-0.5,0.8-0.8c-0.6,0-1.2,0-1.7,0.3
		c-0.3,0.1-0.2,0.4-0.1,0.6C146.7,76.5,146.9,76.8,147,77.1z"/>
	<path d="M215.1,88c-0.9,0,0-0.7-0.3-1c-0.2-0.1,0.2-0.2,0.3-0.3c0.2,0,0.4,0,0.6,0c-0.3-0.2-0.7-0.5-1-0.7c0.2,0.6,0.2,1.1-0.5,1.4
		c-0.4,0.2-0.8,0.4-0.5,1c0.2-0.1,0-0.7,0.4-0.5c0.3,0.1,0.6,0.5,0.3,0.9l0,0.1h0h0C214.6,88.6,214.8,88.3,215.1,88z"/>
	<path d="M214.6,86.1L214.6,86.1c-0.3,0.4-0.3,0.9-0.5,1.4C214.7,87.1,214.7,86.6,214.6,86.1z"/>
	<path d="M214.1,89.3c-0.2,0.2-0.7,0.2-0.6,0.6c0.1,0.4,0.5,0.6,1,0.5c0.1,0,0.2,0,0.3,0.1c0.1-0.3,0.2-0.5,0.3-0.8
		c0-0.1,0-0.2-0.1-0.3c-0.2-0.1-0.4-0.2-0.6-0.3C214.4,89.2,214.2,89.3,214.1,89.3z"/>
	<path d="M152.8,115.9c-0.2-0.4-0.3-0.8-0.3-1.2c-1.1,0.2-1.2,0.3-0.5,1.1C152.3,115.7,152.5,116,152.8,115.9z"/>
	<path d="M153,115.8c0.3-0.6,0.1-1-0.5-1.2c0.1,0.4,0.2,0.9,0.3,1.2C152.9,115.9,153,115.9,153,115.8z"/>
	<path d="M215.2,87.9c0,0.1,0,0.2,0.1,0.3c-0.2,0.4-0.4,0.8-0.9,0.8c0.1,0.1,0.1,0.2,0.2,0.2c0.4-0.2,0.4,0.1,0.6,0.3
		c0-0.1,0-0.2,0-0.3c-0.2-0.6,0.1-0.8,0.5-1c0.6-0.3,0.3,0.2,0.3,0.4c0.5-0.4,0.4-0.7-0.1-1.8C215.9,87.4,215.5,87.6,215.2,87.9z"/>
	<path d="M215.3,88.1c0-0.1-0.1-0.2-0.1-0.3c0,0-0.1,0.1-0.1,0.1c-0.2,0.3-0.5,0.6-0.7,0.9h0C214.9,89,215,88.5,215.3,88.1z"/>
	<path d="M214.5,89.1c0.2,0.1,0.4,0.2,0.6,0.3C214.9,89.3,214.9,89,214.5,89.1z"/>
	<path d="M147,77.1c0.2,0.2-0.4,0.6,0.3,0.7c0.3,0,0.6,0.3,0.7-0.1c0.1-0.4,0.8-0.8,0.3-1.3C148,76.8,147.8,77.4,147,77.1z"/>
	<path d="M148.3,76.3c-0.6,0-0.8,0.6-1.3,0.8C147.8,77.4,148,76.8,148.3,76.3z"/>
	<path d="M120.3,86.5c0,0.2,0.1,0.3,0.1,0.5c0.5,0.2,0.9,0.4,1.4,0.4c0.1-0.2,0.1-0.4,0.2-0.5l0,0h0
		C121.4,86.8,120.9,86.9,120.3,86.5z"/>
	<path d="M120.3,86.5c0.5,0.4,1.1,0.3,1.7,0.3h0C121.6,85.9,121,86.3,120.3,86.5z"/>
	<path d="M154,113.4c0.6-0.5,0.5-0.9-0.2-1.2c-0.1,0-0.3,0-0.4,0.1C153.6,112.6,153.8,113,154,113.4z"/>
	<path d="M153.1,112.3c0.1,0.2,0.2,0.5,0.2,0.6c-0.5,1.1,0.3,0.5,0.6,0.5c-0.1-0.4-0.3-0.8-0.6-1.2
		C153.3,112.3,153.2,112.3,153.1,112.3z"/>
	<path d="M291.8,58.2c0.2-0.2,0.1-0.5-0.2-0.7c-0.3-0.2-0.5-0.1-0.6,0.2c-0.2,0.3-0.4,0.6-0.6,0.9C291.1,59,291.5,58.8,291.8,58.2z"
		/>
	<path d="M78.1,84.4C78.1,84.4,78.1,84.4,78.1,84.4C78.1,84.4,78.1,84.4,78.1,84.4L78.1,84.4z"/>
	<polygon points="78.1,84.4 78.1,84.4 78.1,84.4 	"/>
	<path d="M77.5,85.8c1.1-0.1,0.5-0.8,0.5-1.3c-0.1,0-0.3-0.1-0.4-0.1h0l0,0c-0.1,0.4-0.3,0.7-0.8,0.4c-0.1,0-0.2,0-0.3,0.1
		C76.9,85.1,77.6,85,77.5,85.8z"/>
	<path d="M77.5,85.8c0.1-0.8-0.7-0.6-1-0.9C76.7,85.3,77.2,85.4,77.5,85.8z"/>
	<path d="M255,65.4c-0.4-0.2,0.2-0.6,0.2-0.9c-0.3-0.3-0.6-0.5-0.8,0c-0.1,0.4,0,1,0.4,1.2c0.5,0.1,1.1,0.7,1.6-0.1
		C255.9,66,255.3,65.6,255,65.4z"/>
	<path d="M291.4,59.8c0,0.1-0.1,0.1-0.1,0.2c-0.1,0.3-0.2,0.6-0.2,0.9c0.5,0,0.9,0.4,1.4,0.2C292.1,60.7,291.4,60.5,291.4,59.8z"/>
	<path d="M291.4,59.8c0,0.7,0.7,0.9,1.1,1.2C292.5,60.3,291.9,60.1,291.4,59.8z"/>
	<path d="M121.7,84.2c0,0,0,0.1,0,0.1c0,0,0.1,0,0.1,0c0.2,0.1,0.4,0.1,0.4,0.3c0.3-0.4,0.9-0.8,0-1.3
		C121.9,83.5,121.3,83.5,121.7,84.2z"/>
	<path d="M121.8,84.3C121.8,84.3,121.7,84.3,121.8,84.3c-0.1,0.1-0.2,0.4-0.2,0.6h0c0.2-0.1,0.4-0.2,0.6-0.2
		C122.2,84.4,122,84.4,121.8,84.3z"/>
	<path d="M185.6,70.8c-0.3,0.3-0.5,0.7-0.8,1C185.7,72,185.8,71.9,185.6,70.8z"/>
	<path d="M184.2,71c0.1,0.5,0.4,0.6,0.6,0.8h0c0.3-0.3,0.5-0.7,0.8-1C185,70.4,184.8,71.4,184.2,71z"/>
	<path d="M256.4,65.5c0-0.1,0-0.1,0-0.2c-0.2,0-0.4,0-0.6-0.1C255.9,65.3,256.2,65.4,256.4,65.5z"/>
	<path d="M255.3,64.4c0,0-0.1,0-0.1,0c0,0.2,0.1,0.4,0.3,0.5C255.3,64.8,255.3,64.7,255.3,64.4z"/>
	<path d="M255.3,64.4c0,0.2,0,0.4,0.1,0.5c0.1,0.1,0.2,0.2,0.3,0.3c0.2,0.1,0.4,0.1,0.6,0.1C256.1,65,255.7,64.7,255.3,64.4z"/>
	<path d="M255.4,65c-0.1-0.1-0.2-0.3-0.3-0.5c-0.1,0.3-0.7,0.7-0.2,0.9c0.4,0.2,0.9,0.5,1.4,0.1c-0.2-0.1-0.4-0.2-0.6-0.3
		C255.6,65.2,255.5,65.1,255.4,65z"/>
	<path d="M255.8,65.2c-0.1-0.1-0.2-0.2-0.3-0.3C255.5,65.1,255.6,65.2,255.8,65.2z"/>
	<path d="M184,70c-0.4,0.1-1-0.1-1.1,0.6C183.3,70.6,183.7,70.5,184,70z"/>
	<path d="M183.6,71.1c0.4-0.2,0.6-0.6,0.4-1.1c-0.3,0.4-0.7,0.6-1.1,0.6C183,70.9,183.2,71.3,183.6,71.1z"/>
	<path d="M152,115.8c-0.1,0.2-0.7,0.3-0.4,0.6c0.3,0.4,1,0.2,1.4,0.3c0.2,0,0-0.4,0.1-0.7c-0.1,0-0.1,0-0.1-0.1
		C152.6,116.5,152.3,116.2,152,115.8z"/>
	<path d="M152.9,116c0,0,0.1,0,0.1,0.1c0-0.1,0-0.1-0.1-0.2C153,115.9,152.9,115.9,152.9,116z"/>
	<path d="M152.9,116C152.9,116,152.9,115.9,152.9,116C152.9,115.9,152.9,115.9,152.9,116c-0.4,0-0.7-0.3-1-0.2
		C152.3,116.2,152.6,116.5,152.9,116z"/>
	<path d="M152.9,115.9C152.9,115.9,152.9,116,152.9,115.9c0.1,0,0.1,0,0.2-0.1C153,115.9,152.9,115.9,152.9,115.9
		C152.9,115.9,152.9,115.9,152.9,115.9z"/>
	<path d="M215.8,86.9c-0.1,0-0.1-0.1-0.2-0.1c-0.1,0.2-0.2,0.3-0.3,0.5C215.4,87.1,215.6,87,215.8,86.9z"/>
	<path d="M215,86.8c-0.1,0-0.5,0.1-0.3,0.3c0.4,0.3-0.5,0.9,0.3,1c-0.1-0.3,0.1-0.6,0.2-0.7c0.1-0.2,0.2-0.3,0.3-0.5
		C215.4,86.7,215.2,86.7,215,86.8z"/>
	<path d="M215.2,87.9c0.3-0.3,0.7-0.4,0.6-1c-0.2,0.1-0.3,0.2-0.5,0.4C215.2,87.4,215.2,87.6,215.2,87.9z"/>
	<path d="M215.3,87.2c-0.2,0.2-0.3,0.4-0.2,0.7c0,0,0.1-0.1,0.1-0.1C215.2,87.6,215.2,87.4,215.3,87.2z"/>
	<path d="M120.9,84C120.9,84,120.9,84,120.9,84c0-0.2,0-0.4,0-0.6c-0.3-0.8-0.4-0.7-0.6,0.1c0,0.2-0.6,0.2-0.4,0.6
		c0.2,0.4,0.6,0.2,0.9,0.3C120.7,84.2,120.8,84.1,120.9,84z"/>
	<path d="M120.9,84C120.9,84,120.9,84,120.9,84c-0.2,0.1-0.2,0.2-0.1,0.3c0.1-0.1,0.1-0.1,0.2-0.2C120.9,84.1,120.9,84,120.9,84z"/>
	<path d="M152.7,112c0.2,0,0.3,0,0.5,0.1c0,0,0,0.1,0.1,0.1c0.2-0.1,0.3,0,0.5,0c-0.1-0.2-0.2-0.3-0.3-0.5c-0.1-0.2-0.2-0.5-0.6-0.4
		c-0.4,0.1-0.6,0.2-0.6,0.6c0.1,0.1,0.2,0.1,0.3,0.2C152.6,112,152.7,112,152.7,112z"/>
	<path d="M153.2,112.1c-0.1-0.1-0.3-0.1-0.5-0.1c0,0-0.1,0.1-0.1,0.1c0,0,0.1,0.1,0.1,0.1c0.1,0,0.3,0.1,0.4,0.1
		C153.2,112.2,153.2,112.2,153.2,112.1C153.2,112.1,153.2,112.1,153.2,112.1z"/>
	<path d="M153.3,112.2c0,0,0.1,0.1,0.1,0.1c0.1,0,0.3,0,0.4-0.1C153.6,112.1,153.4,112.1,153.3,112.2z"/>
	<path d="M153.3,112.2c0,0-0.1,0.1-0.1,0.1c0.1,0,0.2,0,0.2,0C153.3,112.2,153.3,112.2,153.3,112.2z"/>
	<path d="M78.5,83.4c-0.3-0.5-0.8,0.2-0.9-0.1c-0.2-0.4-0.3-0.6-0.7-0.3c-0.4,0.3,0,0.6,0,0.9c0.2,0,0.5,0.1,0.7,0.1
		C77.8,83.7,78.2,83.6,78.5,83.4z"/>
	<path d="M121.2,89c-0.2,0-0.3,0.1-0.3,0.2c-0.1,0.5,0.2,0.9,0.1,1.4c0,0,0.2,0.1,0.3,0.1c0.1,0,0.2-0.1,0.2-0.1
		c-0.2-0.4,0.1-0.7,0.2-1C121.6,89.2,121.5,89,121.2,89z"/>
	<path d="M255.5,63.1c-0.4-0.3-0.2-0.7,0-1c-0.2,0-0.4,0-0.6,0.1c0,0.4-0.3,0.7-0.5,1C254.8,63.5,255.2,63.4,255.5,63.1z"/>
	<polygon points="255.5,63.1 255.5,63.1 255.5,63.1 	"/>
	<path d="M255.5,63.1L255.5,63.1c0.2-0.3,0.2-0.7,0-1C255.3,62.4,255.2,62.8,255.5,63.1z"/>
	<path d="M76.3,84.9c0-0.3,0.5-0.6,0.2-0.9c-0.3-0.3-0.6,0.2-1,0.2c-0.1,0-0.1,0.1-0.2,0.1C75.7,84.5,76.1,84.5,76.3,84.9z"/>
	<path d="M76.3,84.9c-0.2-0.3-0.6-0.4-0.9-0.6C75.5,84.8,75.7,85.2,76.3,84.9z"/>
	<path d="M145.7,77.3c0.5,0,0.3-0.6,0.4-0.9c0-0.3-0.4-0.4-0.6-0.5c-0.2-0.1-0.4,0.2-0.3,0.5C145.4,76.7,145.3,77.3,145.7,77.3z"/>
	<path d="M121,84c0.1,0,0.2,0,0.3,0.1c0-0.1,0-0.2,0-0.2c0-0.5,0.5-0.5,0.9-0.4c-0.2-0.1-0.4-0.2-0.6-0.3c-0.2,0.1-0.4,0.2-0.6,0.3
		c-0.1,0-0.1,0-0.2,0C121,83.6,121.1,83.8,121,84z"/>
	<path d="M121,84c0,0.1,0,0.1-0.1,0.2c0.4,0.1,0.4,0.6,0.7,0.8l0,0c-0.2-0.2-0.2-0.6-0.3-0.8C121.3,84,121.1,83.9,121,84z"/>
	<path d="M121.3,83.8c0,0.1,0,0.1,0,0.2c0.1,0.1,0.2,0.2,0.4,0.2c0,0,0-0.1,0-0.1c-0.3-0.7,0.2-0.7,0.6-0.8
		C121.8,83.4,121.3,83.3,121.3,83.8z"/>
	<path d="M121.7,84.3c-0.1-0.1-0.2-0.2-0.4-0.2c0,0.3,0.1,0.6,0.3,0.8C121.6,84.7,121.7,84.5,121.7,84.3z"/>
	<path d="M121,84c0.1-0.2,0-0.4-0.2-0.6c0,0.2,0,0.4,0.1,0.6C120.9,84,121,84,121,84z"/>
	<path d="M120.9,84c0,0,0,0.1,0,0.1c0-0.1,0.1-0.1,0.1-0.2C121,84,120.9,84,120.9,84z"/>
	<path d="M254.9,63.5c-0.2,0-0.4,0-0.6-0.1c-0.2-0.3,0.1-0.3,0.2-0.5c0.1-0.2,0.1-0.5,0.4-0.7c-0.2-0.1-0.3-0.4-0.6-0.3
		c-0.1,0-0.1,0.2-0.1,0.3c0.2,0.3,0.3,0.6-0.2,0.8c-0.2,0.1,0.1,0.4,0.2,0.5c0.5,0.2,0.9,0.2,1.2-0.3l0,0
		C255.4,63.3,255.2,63.5,254.9,63.5z"/>
	<polygon points="255.5,63.1 255.5,63.1 255.5,63.1 	"/>
	<ellipse transform="matrix(0.5621 -0.827 0.827 0.5621 59.6825 238.9616)" cx="255.5" cy="63.1" rx="0" ry="0"/>
	<path d="M254.6,62.9c-0.1,0.1-0.4,0.2-0.2,0.5c0.1,0.2,0.4,0.3,0.6,0.3c0.3,0,0.4-0.2,0.6-0.2h-0.2v-0.3c0,0.3-0.6,0.4-1,0.1
		c0.3-0.3,0.6-0.6,0.6-1C254.6,62.3,254.7,62.6,254.6,62.9z"/>
	<polygon points="255.5,63.1 255.5,63.1 255.5,63.1 	"/>
	<ellipse transform="matrix(0.6623 -0.7493 0.7493 0.6623 38.9973 212.7609)" cx="255.5" cy="63.1" rx="0" ry="0"/>
	<path d="M152.1,113.1c-0.3,0.3-0.4,0.7-0.2,1.2h0C152.2,113.9,152.3,113.5,152.1,113.1z"/>
	<path d="M152.7,114.1c0.2-0.3-0.1-0.6-0.3-0.8c-0.1-0.1-0.2-0.1-0.3-0.2c0.1,0.4,0.1,0.8-0.2,1.2
		C152.2,114.3,152.5,114.4,152.7,114.1z"/>
	<path d="M251.5,64.7c-1.5-0.4-3-0.5-4.4,0.4C248.5,64.5,250,64.4,251.5,64.7z"/>
	<path d="M251.5,64.7c-1.5-0.3-3-0.3-4.4,0.4C248.5,64.6,250,64.6,251.5,64.7z"/>
	<path d="M120.7,87.4c-0.1-0.1-0.2-0.3-0.3-0.4c0.2,0.3,0,0.5-0.1,0.7c0.4-0.1,0.9-0.3,1.1,0.4c0.5,0,0.8-0.2,0.5-0.7
		C121.5,88,121.1,87.5,120.7,87.4z"/>
	<path d="M120.7,87.4c0.4,0.2,0.8,0.6,1.1,0c-0.5,0-1-0.1-1.4-0.4C120.6,87.1,120.6,87.3,120.7,87.4z"/>
	<path d="M122.6,86c0-0.4,0.6-0.8,0.3-1.1c-0.2-0.2-0.6,0.3-0.9,0.5C122.3,85.5,122.4,85.9,122.6,86z"/>
	<path d="M122.6,86c-0.2-0.2-0.3-0.6-0.6-0.6C122,85.8,122,86.2,122.6,86z"/>
	<path d="M120.7,84.5c-0.5,0.2-0.2,0.7-0.3,1.1C121,85.4,120.7,84.9,120.7,84.5z"/>
	<path d="M121.3,85.5c0.2-0.3-0.1-0.5-0.2-0.7c-0.1-0.1-0.2-0.2-0.3-0.3c-0.1,0.4,0.2,0.8-0.3,1.1C120.7,85.8,121,85.8,121.3,85.5z"
		/>
	<path d="M152.3,111.9c-0.2,0.3-0.8,0.1-0.7,0.6c0,0.4,0.4,0.3,0.7,0.4c0-0.3,0.1-0.5,0.2-0.6C152.4,112.1,152.3,112,152.3,111.9z"
		/>
	<path d="M152.7,112.2c-0.1,0-0.2,0-0.2,0c-0.2,0.2-0.3,0.4-0.2,0.6C152.7,112.8,152.7,112.5,152.7,112.2z"/>
	<path d="M152.5,112.2c0,0,0.1-0.1,0.1-0.1c-0.1-0.1-0.2-0.1-0.3-0.2C152.3,112,152.4,112.1,152.5,112.2z"/>
	<path d="M152.5,112.2c0.1,0,0.1,0,0.2,0c0,0-0.1-0.1-0.1-0.1C152.6,112.1,152.5,112.1,152.5,112.2z"/>
	<path d="M75.9,86.3c0.3,0.1,0.7,0.2,1,0.1c0.4-0.1,0.1-0.3,0-0.4C76.7,86.4,76.1,85.8,75.9,86.3z"/>
	<path d="M75.9,86.3c0.2-0.5,0.8,0.1,1-0.4C76,85.5,75.9,85.5,75.9,86.3z"/>
	<path d="M183.3,72.4c0.3,0.2,0.7,0.2,1.1,0.2c0.4-0.1,0.2-0.3,0.1-0.4C184.1,72.5,183.6,72.1,183.3,72.4z"/>
	<path d="M183.3,72.4c0.3-0.3,0.8,0.1,1.1-0.3C184,72,183.5,71.5,183.3,72.4z"/>
	<path d="M257,65c-0.1-0.1-0.2-0.3-0.2-0.5c-0.3,0.2,0.1,0.6-0.3,0.8c0.2,0.4,0.5,0.6,0.8,0.4C257.6,65.4,257.2,65.2,257,65z"/>
	<path d="M256.8,64.6c-1.1-0.1-0.1,0.6-0.3,0.8C256.9,65.2,256.5,64.7,256.8,64.6z"/>
	<path d="M192.5,88.6c-0.1,0-0.2,0.2-0.2,0.4c0.1,0.3,0.1,0.7,0.5,0.6c0.2,0,0.4,0,0.4-0.4C193,89.1,192.9,88.6,192.5,88.6z"/>
	<path d="M292.9,61c0.2,0.1,0.4,0.2,0.7,0.1C293.4,60.9,293.2,60.7,292.9,61z"/>
	<path d="M292.6,60c-0.4,0.3,0.2,0.7,0.3,1c0.3-0.3,0.5-0.1,0.7,0.1c-0.1-0.2-0.1-0.4-0.2-0.5C293,60.5,293,59.7,292.6,60z"/>
	<path d="M214.3,88.8c-0.2-0.2-0.5-0.3-0.7-0.4C213.6,89,213.7,89.3,214.3,88.8z"/>
	<path d="M214,87.9c-0.4-0.1-0.2,0.4-0.4,0.5c0.3,0.1,0.5,0.2,0.7,0.4C214.5,88.4,214.3,88,214,87.9z"/>
	<path d="M215.1,89.2c0.4,0,0.6-0.3,0.8-0.6C215.4,88.6,215.3,89,215.1,89.2z"/>
	<path d="M215.6,88.2c-0.4,0.2-0.8,0.5-0.5,1c0.2-0.2,0.4-0.6,0.8-0.6C215.9,88.4,216.3,87.9,215.6,88.2z"/>
	<path d="M153.4,114.9c0.7-0.1,0.8-0.7,1.1-1.2C154,114,153.7,114.5,153.4,114.9z"/>
	<path d="M153.4,114.9c0.3-0.4,0.6-0.9,1.1-1.2C153.9,113.9,153.2,113.9,153.4,114.9z"/>
	<path d="M78.1,84.4C78.1,84.4,78.1,84.4,78.1,84.4L78.1,84.4C78.1,84.4,78.1,84.4,78.1,84.4z"/>
	<path d="M79.3,84c-0.6-0.2-1.2-0.5-1.2,0.4C78.6,84.7,78.9,84.4,79.3,84z"/>
	<polygon points="78.1,84.4 78.1,84.4 78.1,84.4 	"/>
	<polygon points="78.1,84.4 78.1,84.4 78.1,84.4 78.1,84.4 	"/>
	<path d="M148.3,76.2c0.4-0.3,0.6-0.5,0-0.9l0,0h0C148.5,75.6,148.2,75.9,148.3,76.2z"/>
	<path d="M148.3,76.2c-0.1-0.3,0.2-0.6,0-0.9h0c-0.3,0.3-0.5,0.5-0.8,0.8C147.8,76.3,148.1,76.2,148.3,76.2z"/>
	<path d="M255.7,63.3c0,0.3-0.6,0.6-0.1,0.9C255.6,63.9,256.1,63.6,255.7,63.3z"/>
	<path d="M256.3,63.6c0.1-0.2,0.1-0.4-0.1-0.5c-0.2-0.1-0.3,0.1-0.5,0.2c0.3,0.3-0.1,0.6-0.1,0.9C256,64.1,256.2,63.9,256.3,63.6z"
		/>
	<path d="M214.9,90.5c0.1,0.3,0.4,0.4,0.6,0.4c0.2,0.1,0.5-0.2,0.4-0.3c-0.5-0.2-0.7-0.4-0.4-0.9c-0.1,0-0.2,0-0.3-0.1
		C215.2,90.1,215.2,90.4,214.9,90.5z"/>
	<path d="M215.1,89.8c-0.1,0.3-0.2,0.5-0.3,0.8C215.2,90.4,215.2,90.1,215.1,89.8z"/>
	<path d="M291.8,59.5c0.3-0.3,0.4-0.8,0.7-1.1C291.7,58.4,291.8,59,291.8,59.5z"/>
	<path d="M292.5,58.4c-0.3,0.3-0.4,0.8-0.7,1.1l0,0C292.5,59.4,292.5,58.9,292.5,58.4z"/>
	<path d="M191.2,89.1c0.1,0.5,0.1,0.9-0.1,1.3c0.2,0,0.3-0.1,0.5-0.1C192.2,89.7,191.5,89.4,191.2,89.1z"/>
	<path d="M121.4,88.1c-0.3-0.2-0.8-0.1-1.1-0.4C120.6,88.1,120.8,88.6,121.4,88.1z"/>
	<path d="M120.3,87.7c0.3,0.3,0.7,0.2,1.1,0.4C121.2,87.5,120.7,87.6,120.3,87.7z"/>
	<path d="M215,91.8c0.2,0.6,0.5,0.8,0.9,0.9c0,0,0.2-0.2,0.2-0.3C215.9,91.9,215.4,92.1,215,91.8z"/>
	<path d="M77.7,84.3c0-0.1,0-0.2,0-0.3c-0.3,0.2-0.5,0.2-0.7-0.1c0,0.3-0.1,0.6-0.1,0.9C77.2,84.8,77.2,84.2,77.7,84.3z"/>
	<path d="M77.7,84.3L77.7,84.3c-0.4-0.2-0.5,0.5-0.8,0.4C77.3,85.1,77.5,84.8,77.7,84.3z"/>
	<path d="M77.6,84c-0.2,0-0.5-0.1-0.7-0.1C77.1,84.2,77.3,84.3,77.6,84z"/>
	<path d="M294.8,64c-0.2,0-0.3,0.1-0.3,0.3c0,0.3,0.2,0.5,0.5,0.6c0.3,0,0.3-0.1,0.3-0.3C295.2,64.4,295.1,64.1,294.8,64z"/>
	<path d="M85,101.2c0.1,0,0.3,0,0.3-0.1c0.1-0.2-0.1-0.3-0.2-0.4c-0.1-0.2-0.2-0.4-0.4-0.6c-0.2,0.3-0.1,0.6-0.1,0.8
		C84.7,101.1,84.8,101.2,85,101.2z"/>
	<path d="M192.6,87.4c0.1,0,0.2-0.1,0.3-0.1c0.1-0.2-0.1-0.2-0.2-0.3c-0.1-0.2-0.3-0.4-0.4-0.6c-0.1,0-0.1,0-0.2,0.1
		c0,0.2,0,0.5,0.1,0.7C192.2,87.3,192.4,87.4,192.6,87.4z"/>
	<path d="M258.6,68.7c-0.2,0-0.3,0.2-0.3,0.4c0.1,0.2,0.2,0.5,0.5,0.5c0.2,0,0.3-0.2,0.2-0.4C259,69,258.9,68.7,258.6,68.7z"/>
	<path d="M72.6,87.7c0.3-0.1,0.4-0.3,0.4-0.6c0-0.2-0.1-0.4-0.2-0.3c-0.3,0.1-0.4,0.3-0.5,0.6C72.2,87.6,72.4,87.7,72.6,87.7z"/>
	<path d="M85.1,103.5c0.8-0.2,0.8-0.2,0.3-0.9C85.2,102.8,85.5,103.2,85.1,103.5z"/>
	<path d="M85.3,102.5c-0.8,0.1-0.1,0.6-0.3,0.9C85.5,103.2,85.2,102.8,85.3,102.5z"/>
	<path d="M215.1,91.1c-0.1-0.3-0.3-0.4-0.6-0.4c-0.2,0-0.4,0.2-0.4,0.4c0.1,0.3,0.4,0.3,0.6,0.3C214.9,91.4,215.1,91.4,215.1,91.1z"
		/>
	<path d="M215.7,83.1c0.1,0.1,0.3,0,0.3,0c0.2-0.4-0.1-0.6-0.4-1.1C215.6,82.5,215.4,82.8,215.7,83.1z"/>
	<path d="M180.1,73.9c0.3,0,0.4-0.3,0.4-0.6c0-0.2,0-0.3-0.3-0.3c-0.2,0.1-0.4,0.3-0.4,0.6C179.7,73.8,179.9,73.9,180.1,73.9z"/>
	<path d="M191.6,90.3c-0.1,0.2-0.3,0.2-0.5,0.1c0,0.8,0.6,0.2,0.9,0.5C192,90.5,191.9,90.4,191.6,90.3z"/>
	<path d="M191.6,90.3c-0.2,0-0.3,0.1-0.5,0.1C191.3,90.5,191.5,90.5,191.6,90.3z"/>
	<path d="M83.6,104.2c0,0.7,0.6,0.5,0.9,0.4c0.3-0.1-0.1-0.3-0.2-0.5C84.1,104.4,83.8,104.3,83.6,104.2z"/>
	<path d="M84.3,104.1c-0.2,0-0.5,0.1-0.7,0.1C83.8,104.3,84.1,104.4,84.3,104.1z"/>
	<path d="M291.3,60c-0.2-0.1-0.2-0.7-0.6-0.3c-0.3,0.3-0.1,0.4,0.2,0.6c0.2,0.1-0.1,0.5,0.2,0.6C290.9,60.5,291,60.2,291.3,60z"/>
	<path d="M291.1,60.9c0.1-0.3,0.2-0.6,0.2-0.9C291,60.2,290.9,60.5,291.1,60.9z"/>
	<path d="M154.1,104.6c0,0,0.1,0.2,0.2,0.2c0.3-0.2,0.4-0.5,0.6-1C154.3,104,154.1,104.2,154.1,104.6z"/>
	<path d="M220.7,94.3c0.4,0.2,0.7,0.2,0.9-0.1c0-0.1,0-0.2,0-0.2C221.3,93.9,221.1,94.2,220.7,94.3z"/>
	<path d="M191.9,88.1c-0.1,0-0.3,0.1-0.3,0.1c-0.1,0.3,0.2,0.5,0.4,0.7C192.2,88.6,192.2,88.3,191.9,88.1z"/>
	<path d="M149.9,76.4c0.2-0.1,0.3-0.3,0.3-0.5c0-0.2-0.1-0.4-0.3-0.3c-0.2,0-0.3,0.2-0.2,0.4C149.7,76.2,149.7,76.4,149.9,76.4z"/>
	<path d="M121.7,83.1c0-0.4-0.2-0.6-0.5-0.4c-0.4,0.1-0.2,0.5-0.1,0.7C121.2,83.2,121.4,83,121.7,83.1z"/>
	<path d="M121,83.4c0.2-0.1,0.4-0.2,0.6-0.3C121.4,83,121.2,83.2,121,83.4z"/>
	<path d="M191.8,85.7c0.2,0,0.3-0.1,0.3-0.3c0-0.2-0.1-0.4-0.3-0.4c-0.2,0-0.3,0.1-0.3,0.3C191.6,85.5,191.6,85.7,191.8,85.7z"/>
	<path d="M151.7,74.7c0.2-0.1,0.5-0.1,0.5-0.4c0-0.2-0.2-0.2-0.3-0.2c-0.2,0-0.4,0.1-0.4,0.4C151.4,74.7,151.5,74.7,151.7,74.7z"/>
	<path d="M53.2,80.9c0.2,0.2,0,0.5-0.3,0.7c-0.4,0.3-0.8,0.4-1.2-0.1c0.1,0.4,0.3,0.6,0.8,0.5c0.1,0,0.4-0.2,0.4,0.1
		c0.1,0.2-0.2,0.3-0.3,0.4c0.6-0.1,1,0,0.8,0.7c0.2-0.2,0.3-0.4,0.2-0.6c-0.3-0.5,0.1-0.6,0.3-0.9c-0.8-0.4,0.2-0.9-0.1-1.3
		c0-0.1,0.3,0,0.4,0c-0.1-0.4,0.7-0.5,0.4-1c0-0.7-0.3-0.9-0.9-0.5c-0.2,0.1-0.4,0.2-0.5,0.2l0,0c-0.4,0.4-1,0.2-1.3,0.7
		c0.1,0,0.1,0,0.2,0c0.4-0.1,0.7-0.3,1.1,0c0,0,0,0.3,0,0.3c-0.4,0.1-0.9,0.5-1.3,0c-0.1,0.2,0,0.4,0.1,0.5c0,0,0.1,0,0.1,0
		C52.5,80.4,53,80.5,53.2,80.9z"/>
	<path d="M53.9,78.5c0.3-0.2,0.6-0.4,1-0.1c0.4,0.3,0.2,0.6,0,0.9c1-0.4,1.4-1.1,1.1-2.2c-0.1-0.3-0.2-0.4-0.4-0.5
		c-0.3-0.1-0.3,0.2-0.3,0.4c-0.1,0.3-0.3,0.2-0.6,0.3c-0.8,0.2-1.4,1.1-1.2,1.7h0C53.5,78.9,53.6,78.7,53.9,78.5z"/>
	<path d="M54,78.9c0.6-0.4,0.9-0.2,0.9,0.5c0.2-0.3,0.3-0.6,0-0.9c-0.4-0.3-0.6-0.1-1,0.1c-0.3,0.1-0.4,0.3-0.5,0.6h0l0,0
		C53.6,79,53.8,79,54,78.9z"/>
	<path d="M34.9,93c-0.7,0.1-1,0.3-0.4,0.9c0.3,0.3,0,0.4-0.1,0.6c0.3,0.1,0.6,0.2,1,0.2c0.3,0,0.3,0.2,0.4,0.4
		c0.1,0.1,0.3,0.1,0.4,0c-0.6-0.5,0.2-1-0.1-1.5C36,93.4,35.8,93.2,36,93c-0.1-0.1-0.1-0.1-0.2-0.2C35.5,92.8,35.2,93,34.9,93z"/>
	<path d="M17.3,87.1c-0.1-0.3,0.1-0.7,0.5-0.8c0-0.2,0-0.6-0.3-0.6c-0.6,0.1-0.4,0.7-0.5,1c-0.5,0-0.3-0.6-0.7-0.7
		c-0.4,0.4-0.7,0.8-1.1,1.2c0.3-0.2,0.6-0.1,0.9,0.1c0.2-0.4,0.4-0.3,0.6,0c0.1,0.2,0,0.6,0.4,0.4c0.3-0.1,0.8-0.1,0.8-0.7
		C17.7,87.5,17.3,87.5,17.3,87.1z"/>
	<path d="M51.8,81.4c0.4-0.2,0.7-0.4,0.2-0.9C51.8,80.8,51.7,81.1,51.8,81.4z"/>
	<path d="M51.8,81.4c0.4,0.5,0.8,0.4,1.2,0.1c0.3-0.2,0.4-0.4,0.3-0.7c-0.3-0.4-0.7-0.5-1.2-0.3c0,0-0.1,0-0.1,0
		C52.5,81,52.1,81.2,51.8,81.4z"/>
	<path d="M50,102.6c-0.2,0.9-0.9,0.1-1.4,0.3c0.2,0.4,0.9,0.5,0.7,1h0c0.2,0,0.4-0.1,0.7-0.1c0-0.2,0-0.5,0.4-0.4
		c0.6,0.1,0.6,0.1,0.6-0.6C50.5,103.1,50.3,102.9,50,102.6z"/>
	<path d="M35.8,90.6c0.3,0,0.4,0.2,0.3,0.4c-0.1,0.2-0.2,0.4-0.2,0.6c0.7,0.1,1.1-0.5,1.2-0.9c0.1-0.4-0.6-0.4-0.9-0.5
		C36.1,90.3,35.9,90.4,35.8,90.6L35.8,90.6z"/>
	<path d="M34.7,91.1c-0.1,0.2-0.1,0.4-0.2,0.6c-0.1,0.3-0.2,0.7,0.4,0.8c0.6,0.1,0.7-0.3,0.6-0.8C35.4,91.3,35.1,91.2,34.7,91.1z"/>
	<path d="M35.8,92.8c0.1,0,0.2,0.1,0.2,0.2c0.9,0.2,0.9-0.6,1.4-1.1C36.6,91.8,36.1,92.1,35.8,92.8z"/>
	<path d="M35.8,92.8c0.1,0.1,0.1,0.1,0.2,0.2C36,92.9,36,92.8,35.8,92.8z"/>
	<path d="M50.9,102.8c0.1-0.9-0.6-0.9-1.2-0.9c0,0.2,0.1,0.4,0.1,0.6c0.1,0,0.1,0.1,0.2,0.1C50.4,102.3,50.7,102.5,50.9,102.8z"/>
	<path d="M50.9,102.8c-0.2-0.3-0.5-0.5-0.9-0.2C50.3,102.9,50.5,103.1,50.9,102.8z"/>
	<path d="M52.7,82.4c-0.2,0-0.5-0.2-0.5,0.2c0,0.5,0.8,0.8,1.2,0.6C53.2,82.9,52.7,82.9,52.7,82.4z"/>
	<path d="M52.7,82.4c0,0.5,0.5,0.5,0.8,0.7C53.7,82.4,53.3,82.3,52.7,82.4z"/>
	<path d="M35.3,90.5c0.1,0,0.1,0,0.2,0.1c0,0,0,0,0,0c0.1-0.3,0.4-0.4,0.7-0.3c0-0.2,0-0.5,0.1-0.7c-0.2,0.1-0.2,0.4-0.5,0.4
		c-0.2-0.3,0-0.6,0-0.8c-0.2,0-0.4,0-0.5,0.1c0,0.3,0.1,0.6,0.1,0.9C35.3,90.1,35.3,90.3,35.3,90.5z"/>
	<path d="M35.5,90.5C35.5,90.5,35.5,90.5,35.5,90.5c0.1,0.1,0.2,0.1,0.2,0.1h0l0,0c0.1-0.1,0.3-0.3,0.4-0.4
		C35.9,90.1,35.7,90.2,35.5,90.5z"/>
	<path d="M35.5,90.7c-0.1,0-0.2,0-0.3-0.1c0,0,0,0,0-0.1c-0.1,0.1-0.2,0.1-0.3,0.2c0,0.1-0.1,0.2-0.1,0.4c0.7-0.2,0.8-0.1,0.8,0.6
		c0.1,0,0.2-0.1,0.3-0.1C35.5,91.4,35.5,91.1,35.5,90.7z"/>
	<path d="M36,91c0.1-0.3,0.1-0.4-0.3-0.4c-0.1,0.1-0.2,0.1-0.2,0.1c0,0.3,0,0.7,0.3,0.9C35.8,91.4,35.9,91.2,36,91z"/>
	<path d="M34.7,91.1c0.3,0.1,0.7,0.2,0.8,0.6C35.6,91,35.5,90.9,34.7,91.1z"/>
	<path d="M35.2,90.6c0.1,0.1,0.2,0.1,0.3,0.1c0-0.1,0-0.1,0-0.2c-0.1,0-0.1,0-0.2-0.1C35.3,90.5,35.2,90.5,35.2,90.6
		C35.2,90.6,35.2,90.6,35.2,90.6z"/>
	<path d="M35.5,90.7c0.1,0,0.2,0,0.2-0.1h0c-0.1,0-0.2,0-0.2-0.1C35.5,90.6,35.5,90.7,35.5,90.7z"/>
	<path d="M49.7,100.8c0.2,0,0.3-0.2,0.2-0.3c-0.2-0.4-0.8-0.4-1-0.8c-0.1,0.1-0.2,0.2-0.2,0.3C48.7,100.2,49.4,100.9,49.7,100.8z"/>
	<path d="M49.3,104L49.3,104c-0.1,0.2-0.3,0.6,0.1,0.6c0.3,0.1,0.7,0,0.9-0.2c0.2-0.2-0.1-0.4-0.3-0.5
		C49.8,104.1,49.6,104.1,49.3,104z"/>
	<path d="M50,103.9c-0.2,0-0.4,0.1-0.7,0.1C49.6,104.1,49.8,104.1,50,103.9z"/>
	<path d="M52.1,79.8c0,0.1-0.1,0.1-0.1,0.2C52.1,80,52.2,80,52.1,79.8z"/>
	<path d="M53.3,80.1c0,0,0.1-0.3,0-0.3c-0.4-0.2-0.7,0-1.1,0c-0.1,0-0.1,0-0.2,0c0.1,0.2,0,0.2-0.1,0.2
		C52.4,80.6,52.8,80.2,53.3,80.1z"/>
	<path d="M34.8,90.7c0-0.2,0.1-0.3,0.3-0.3c0-0.1-0.1-0.2-0.1-0.4c-0.1,0.1-0.3,0.1-0.5,0h0c-0.3-0.2-0.5,0-0.5,0.3
		C34.1,90.8,34.5,90.7,34.8,90.7z"/>
	<path d="M35.3,90.5c0-0.2,0-0.3-0.1-0.5c-0.1,0-0.1,0.1-0.2,0.1c0,0.1,0,0.3,0.1,0.4C35.2,90.4,35.2,90.4,35.3,90.5z"/>
	<path d="M35.1,90.4c-0.1,0-0.2,0.1-0.3,0.3C34.9,90.7,35.1,90.6,35.1,90.4C35.1,90.5,35.1,90.5,35.1,90.4z"/>
	<path d="M35.3,90.5c-0.1,0-0.1,0-0.2,0c0,0,0,0.1,0.1,0.1C35.2,90.5,35.3,90.5,35.3,90.5z"/>
	<path d="M54.1,81.7c0.5-0.3,0.1-0.9,0.4-1.3C54,80.7,54.2,81.3,54.1,81.7z"/>
	<path d="M54,80.4c0.3,0.4-0.7,0.9,0.1,1.3c0.1-0.4-0.1-0.9,0.4-1.3C54.3,80.4,54,80.3,54,80.4z"/>
	<path d="M35,95.9c-0.3,0-0.1,0.4-0.2,0.6c0.1,0.2,0,0.6,0.4,0.6c0.2,0,0.4-0.2,0.3-0.5C35.4,96.3,35.3,95.9,35,95.9z"/>
	<path d="M34.4,94.5c-0.2,0.6,0.3,0.7,0.7,0.8c0.4,0,0.4-0.3,0.3-0.5C34.9,95,34.7,94.8,34.4,94.5z"/>
	<path d="M35.3,94.7c-0.3-0.1-0.6-0.2-1-0.2C34.7,94.8,34.9,95,35.3,94.7z"/>
	<path d="M15.2,87.3c0,0.3,0.3,0.3,0.5,0.5c0.6,0.4,0.6,0.1,0.4-0.4C15.8,87.7,15.5,87.4,15.2,87.3z"/>
	<path d="M15.2,87.3c0.3,0.1,0.6,0.4,0.9,0.1C15.9,87.2,15.6,87.1,15.2,87.3z"/>
	<path d="M17.9,87.2c0-0.3-0.1-0.6-0.1-0.9C17.6,86.7,17.4,87,17.9,87.2z"/>
	<path d="M17.8,86.3c-0.5,0.1-0.6,0.5-0.5,0.8c0.1,0.3,0.4,0.3,0.7,0.1C17.4,87,17.6,86.7,17.8,86.3z"/>
	<path d="M49.8,101.9c-0.2-0.1-0.4-0.4-0.7-0.2c-0.2,0.1-0.1,0.3,0.1,0.4c0.2,0.1,0.1,0.8,0.7,0.3C49.7,102.3,49.6,102.1,49.8,101.9
		z"/>
	<path d="M49.8,102.5c0-0.2-0.1-0.4-0.1-0.6C49.6,102.1,49.7,102.3,49.8,102.5z"/>
	<path d="M36.3,89.5c-0.3-0.2-0.1-0.5-0.2-0.8c-0.2,0.2-0.3,0.3-0.4,0.4C35.9,89.2,36,89.5,36.3,89.5z"/>
	<path d="M35.7,89.9c0.3,0,0.4-0.3,0.5-0.4c-0.3,0-0.4-0.3-0.6-0.4C35.8,89.3,35.5,89.6,35.7,89.9z"/>
	<path d="M19.5,82.8c-0.2,0.1-0.4,0.3-0.4,0.5c0,0.2,0.2,0.2,0.3,0.2c0.2-0.1,0.3-0.3,0.3-0.5C19.8,82.9,19.7,82.8,19.5,82.8z"/>
	<path d="M35,89.9c0-0.3-0.1-0.6,0.1-0.9c-0.7,0.1-0.1,0.8-0.6,1h0C34.8,90.1,34.9,90,35,89.9z"/>
	<path d="M35,89.9c0.1,0,0.1,0,0.2,0c0-0.3-0.1-0.6-0.1-0.9C35,89.3,35.1,89.7,35,89.9z"/>
	<path d="M35,90.1C35,90.1,35,90,35,90.1c0-0.1,0-0.1,0-0.1c-0.2,0-0.3,0.2-0.5,0.1C34.8,90.2,34.9,90.1,35,90.1z"/>
	<path d="M35,89.9C35,90,35,90,35,89.9c0,0.1,0,0.1,0,0.1c0.1,0,0.1-0.1,0.2-0.1C35.2,89.9,35.1,89.9,35,89.9z"/>
	<path d="M184.9,70.2c0.2,0,0.3-0.2,0.2-0.4c-0.2-0.2,0.1-0.7-0.5-0.7c-0.3,0-0.4,0.2-0.3,0.5C184.4,70,184.5,70.3,184.9,70.2z"/>
	<g>
		<g>
			<g>
				<g>
					<rect x="69" y="159.9" class="st0" width="210.9" height="23.8"/>
					<text transform="matrix(1 0 0 1 69.0391 172.9241)" class="st1 st2 st3">BELT company</text>
				</g>
			</g>
		</g>
	</g>
	<text transform="matrix(1 0 0 1 136.0566 23.9861)" class="st4 st2 st3">the</text>
	<g>
		<g>
			<line class="st5" x1="6.9" y1="40.5" x2="8" y2="40.5"/>
			<line class="st6" x1="10.3" y1="40.5" x2="305.7" y2="40.5"/>
			<line class="st5" x1="306.9" y1="40.5" x2="308" y2="40.5"/>
		</g>
	</g>
	<g>
		<g>
			<line class="st5" x1="6.9" y1="142.1" x2="8" y2="142.1"/>
			<line class="st6" x1="10.3" y1="142.1" x2="305.7" y2="142.1"/>
			<line class="st5" x1="306.9" y1="142.1" x2="308" y2="142.1"/>
		</g>
	</g>
	<g>
		<g>
			<rect x="185.3" y="14.2" class="st7" width="10.6" height="1"/>
			<rect x="185.3" y="17.1" class="st7" width="14.9" height="1"/>
			<rect x="185.3" y="19.9" class="st7" width="10.6" height="1"/>
		</g>
		<g>
			
				<rect x="118.4" y="14.2" transform="matrix(-1 -1.224647e-16 1.224647e-16 -1 247.476 29.4244)" class="st7" width="10.6" height="1"/>
			
				<rect x="114.1" y="17.1" transform="matrix(-1 -1.224647e-16 1.224647e-16 -1 243.1939 35.142)" class="st7" width="14.9" height="1"/>
			
				<rect x="118.4" y="19.9" transform="matrix(-1 -1.224647e-16 1.224647e-16 -1 247.476 40.8595)" class="st7" width="10.6" height="1"/>
		</g>
	</g>
	<g>
		<path d="M31.2,164.2l0.9,1.9c0,0.1,0.1,0.2,0.2,0.2l2.1,0.3c0.3,0,0.4,0.4,0.2,0.5l-1.5,1.5c-0.1,0.1-0.1,0.2-0.1,0.3l0.4,2.1
			c0,0.3-0.2,0.5-0.5,0.3l-1.9-1c-0.1,0-0.2,0-0.3,0l-1.9,1c-0.2,0.1-0.5-0.1-0.5-0.3l0.4-2.1c0-0.1,0-0.2-0.1-0.3l-1.5-1.5
			c-0.2-0.2-0.1-0.5,0.2-0.5l2.1-0.3c0.1,0,0.2-0.1,0.2-0.2l0.9-1.9C30.7,163.9,31.1,163.9,31.2,164.2z"/>
		<path d="M284.4,164.2l0.9,1.9c0,0.1,0.1,0.2,0.2,0.2l2.1,0.3c0.3,0,0.4,0.4,0.2,0.5l-1.5,1.5c-0.1,0.1-0.1,0.2-0.1,0.3l0.4,2.1
			c0,0.3-0.2,0.5-0.5,0.3l-1.9-1c-0.1,0-0.2,0-0.3,0l-1.9,1c-0.2,0.1-0.5-0.1-0.5-0.3l0.4-2.1c0-0.1,0-0.2-0.1-0.3l-1.5-1.5
			c-0.2-0.2-0.1-0.5,0.2-0.5l2.1-0.3c0.1,0,0.2-0.1,0.2-0.2l0.9-1.9C283.9,163.9,284.3,163.9,284.4,164.2z"/>
	</g>
</g>
</svg>
