<?xml version="1.0" encoding="utf-8"?>
<!-- Generator: Adobe Illustrator 19.2.1, SVG Export Plug-In . SVG Version: 6.00 Build 0)  -->
<svg version="1.1" id="Layer_1" xmlns="http://www.w3.org/2000/svg" xmlns:xlink="http://www.w3.org/1999/xlink" x="0px" y="0px"
	 viewBox="0 0 315 195.1" style="enable-background:new 0 0 315 195.1;" xml:space="preserve">
<style type="text/css">
	.st0{fill:none;stroke:#000000;stroke-width:0.3822;stroke-miterlimit:10;}
	.st1{fill:none;stroke:#000000;stroke-width:0.3822;stroke-miterlimit:10;stroke-dasharray:2.2813,2.2813;}
	.st2{fill:#DFB078;}
	.st3{fill:#FFFFFF;}
	.st4{fill:none;}
	.st5{font-family:'BrandonGrotesque-Bold';}
	.st6{font-size:15.2864px;}
	.st7{letter-spacing:5;}
	.st8{font-family:'Rockwell';}
	.st9{fill:none;stroke:#FFFFFF;stroke-width:0.3822;stroke-miterlimit:10;}
	.st10{fill:none;stroke:#FFFFFF;stroke-width:0.3822;stroke-miterlimit:10;stroke-dasharray:2.2813,2.2813;}
</style>
<g>
	<g>
		<path class="st3" d="M308.3,68.5c-0.8-0.9-1.9-0.7-2.4,0.5c-0.9,2.4-1.8,4.8-3.4,6.9c-1.4,1.9-3.2,3.2-5.7,3.5
			c-0.8,0.1-1-0.2-0.9-0.9c0-0.2,0.1-0.4,0.2-0.6c1.6-4,2.1-8.2,1.7-12.4c-0.2-2.3-0.7-4.5-2.2-6.4c-2.5-3.2-5.9-4.2-9.8-3.7
			c-5.5,0.6-9.5,3.8-12.5,8.2c-1.7,2.4-2.7,5.2-3.3,8.1c-0.6,3.2-1.8,6.2-3.7,8.8c-1.4,1.9-3.2,3.2-5.6,3.6c-0.8,0.1-1.1-0.2-0.9-1
			c0-0.2,0.1-0.4,0.2-0.6c1.8-5,2.5-10.1,1.1-15.4c-0.5-2.1-1.6-3.8-3.3-5c-3.5-2.5-7.3-2.7-11.2-1.3c-5.2,1.9-8.8,5.6-11.1,10.6
			c-1,2.2-1.5,4.6-2.2,6.9c-0.9,2.7-1.9,5.3-3.2,7.9c-1.2,2.4-2.7,4.5-5,5.9c-2.3,1.4-4.7,1.4-5.9-0.9c-0.3-0.6-0.6-1.2-0.6-1.9
			c-0.2-2,0.1-3.8,0.7-5.7c1-2.9,2.7-5.5,4-8.3c0.5-1,0.5-2,0.2-3c-0.5-1.5-1.3-2.6-2.5-3.6c-2.1-1.7-4.2-3.4-6.3-5.1
			c-0.6-0.5-0.9-1.1-0.9-1.9c0-1,0-2.1-0.4-3c-0.4-1.1-1.5-1.9-2.7-1.8c-1.8,0.2-3.3,2.1-3.2,4c0.1,1.4,0.8,2.6,1.6,3.8
			c0.4,0.6,0.8,1.3,0.7,2c-0.2,2-0.5,4-0.9,6c-1,4.8-2.4,9.5-4.4,14c-1.1,2.4-2.1,4.7-3.8,6.7c-1,1.2-2,2.3-3.8,2.3
			c-0.8,0-1.4-0.3-1.6-1.2c-0.1-0.6-0.2-1.3-0.2-1.9c0.1-4.9,0.8-9.7,1.5-14.5c0.3-2,0.1-2.3-1.7-2.9c-0.2-0.1-0.5-0.2-0.8-0.2
			c-1.8-0.3-2.9,0.4-3.2,2.2c-0.3,1.8-0.7,3.6-1.1,5.4c-1.1,4.5-2.9,8.7-5.5,12.4c-0.9,1.3-1.9,2.5-3.5,3.1c-1.4,0.6-2.8,0.2-3.7-1
			c-0.5-0.7-0.8-1.5-0.9-2.3c-0.5-2.7-0.3-5.3,0.4-8c1.1-4.4,3-8.2,6.5-11.2c4.5-4,9.7-3.9,14.7-1.5c1.1,0.5,1.6,0.5,2.4-0.4
			c1.4-1.5,1.2-2.9-0.5-4c-0.8-0.5-1.5-0.8-2.4-1.1c-6.6-1.9-12.7-1-18,3.3c-3.4,2.7-6,6.2-7.6,10.3c-0.7,1.8-1.4,3.7-1.9,5.7
			c-0.5,1.7-0.9,3.3-1.7,4.9c-0.7,1.4-1.6,2.8-2.4,4.2c-1.5,2.8-3.6,5.1-6.2,7c-0.4,0.3-0.9,0.9-1.4,0.6c-0.5-0.3-0.3-1.1-0.2-1.6
			c0.7-3.6,1.1-7.3,1.6-10.9c0.4-2.7,0.6-5.5,1.1-8.2c0.6-3.1-0.1-4-3.2-4.1c-1.3-0.1-2.3,0.7-2.5,2.1c-0.1,0.9-0.3,1.8-0.4,2.7
			c-0.5,3.3-1.5,6.5-2.8,9.5c-0.5,1.3-1.2,2.5-1.9,3.8c-0.6,1.1-1.3,2.1-2.2,3c-0.9,0.9-1.8,1.8-3,2.2c-1.3,0.4-2.6,0.1-3.3-1.1
			c-1.2-1.9-1.4-3.9-1.2-6.1c0.4-4.4,1.8-8.5,4.2-12.2c2.4-3.7,5.7-6,10.1-6.5c2.5-0.3,4.8,0.4,7,1.6c1.7,0.9,2.6,0.6,3.6-1.2
			c0.5-1,0.4-1.9-0.5-2.5c-2.5-1.5-5.2-2.4-8.1-2.6c-2.7-0.1-5.3,0.4-7.8,1.3c-4,1.5-7,4.1-9.5,7.3c-2.1,2.9-3.8,6.1-4.6,9.7
			c-0.9,4.3-2.9,8.1-5.1,11.8c-0.8,1.3-1.9,2.3-3.2,3.1c-1.2,0.7-2.2,0.2-2.4-1.2c-0.2-1.8,0.1-3.5,0.3-5.2c0.5-3.8,1-7.7,1.5-11.5
			c0.3-2.3,0.3-4.5-0.5-6.7c-0.9-2.5-2.4-3.8-4.9-3.9c-3.1-0.1-5.9,0.8-8.1,3.1c-1.9,2-3.8,3.9-5.1,6.3c-0.1,0.2-0.2,0.4-0.5,0.5
			c-0.1-0.3-0.1-0.6,0-0.9c0.2-1.5,0.5-2.9,0.7-4.4c0.1-0.9-0.2-1.8-1-2c-1.5-0.5-2.9-0.6-4.3,0.4c-0.5,0.4-0.8,0.9-0.9,1.5
			c-0.4,3-0.8,6.1-1.3,9.1c-0.5,3.4-0.8,6.8-2.5,10c-1.2,2.3-2.1,4.6-3.7,6.6c-0.9,1.2-2,2.3-3.7,2.3c-1,0-1.4-0.3-1.7-1.3
			c-0.2-0.6-0.2-1.2-0.2-1.8c0.1-5,0.9-10,1.5-14.9c0.2-1.4,0-1.8-1.3-2.3c-0.2-0.1-0.4-0.1-0.6-0.2c-1.7-0.6-3.5-0.1-3.9,2.3
			c-0.5,3.1-1.1,6.2-2.3,9.2c-1.4,3.6-3,7-5.5,9.8c-1.2,1.3-2.6,2.3-4.5,1.7c-1.4-0.4-2-1.6-2.3-2.9c-0.5-2.3-0.6-4.7-0.1-7
			c0.7-3.5,1.9-6.9,4.1-9.8c4.1-5.5,9.2-7.6,15.8-5.2c0.5,0.2,0.9,0.4,1.4,0.6c1.7,0.8,3,0.2,3.5-1.7c0.2-0.7,0.1-1.3-0.4-1.8
			c-0.7-0.7-1.6-1.2-2.5-1.5c-2.9-1.1-5.8-1.2-8.8-1c-3.9,0.3-7.3,1.8-10.3,4.3c-3.8,3.2-6.5,7.2-8.1,12c-1.3,4-2.1,8-1.1,12.1
			c0.4,1.9,1.1,3.7,2.5,5.1c2.4,2.3,5.2,2.4,8.1,1.3c2.9-1,5-3,6.5-5.6c0.7-1.2,1.4-2.5,2-3.8c0.1-0.2,0.2-0.5,0.4-0.5
			c0.4,0.1,0.2,0.4,0.2,0.7c0,1.1,0.1,2.1,0.4,3.1c1.2,3.8,4.5,4.6,7.5,3.3c2.6-1.1,4.4-3.1,6-5.4c0.3-0.5,0.6-1.1,1.1-1.6
			c-0.2,1.5-0.5,3-0.4,4.4c0,1,0.6,1.6,1.6,1.7c1.2,0.1,2.5-0.1,3.6-0.4c0.7-0.2,1.2-0.6,1.2-1.4c0-0.6,0.1-1.1,0.2-1.7
			c0.3-2.6,0.6-5.2,0.9-7.8c0.5-3.3,0.7-6.7,2.3-9.8c1.8-3.4,4.3-6.2,7.3-8.5c0.3-0.2,0.6-0.4,0.9-0.5c2.1-1,4,0.3,4,2.6
			c0,0.8,0,1.6-0.1,2.4c-0.4,4.2-1.2,8.3-1.5,12.5c-0.2,2-0.5,4-0.1,6c0.5,2.5,1.6,3.8,3.8,4.1c3.4,0.6,6-0.8,8.2-3.1
			c1.7-1.7,2.9-3.8,4-5.8c0.1-0.2,0.1-0.5,0.4-0.4c0.2,0,0.3,0.3,0.3,0.5c0.1,0.6,0.3,1.2,0.5,1.9c1,2.8,3.5,4.7,6.2,4.7
			c4,0,7.1-1.6,9.4-4.9c1-1.4,1.8-2.8,2.6-4.2c0.1-0.4,0.2-0.8,0.6-1.2c0.1,1-0.2,1.8-0.4,2.6c-0.3,2.4-0.6,4.7-1.1,7
			c-0.1,0.6-0.5,1.1-1,1.5c-0.7,0.4-1.4,0.9-2.1,1.3c-2.2,1.5-4.6,2.7-6.5,4.6c-2.3,2.3-4.3,4.7-4.7,8.1c-0.3,2.7,0.9,5.4,3,6.4
			c2.2,1,4.6,1.2,7,0.5c4-1.1,6-4.1,7.1-7.8c1-3.4,1.7-6.9,2.1-10.4c0.1-1.1,0.5-2,1.6-2.6c0.6-0.3,1-0.8,1.6-1.1
			c3.5-2.4,6.2-5.6,8.4-9.2c0.4-0.7,0.7-1.4,1.1-2.1c0.1-0.1,0.1-0.4,0.4-0.3c0.2,0,0.1,0.2,0.2,0.4c0.1,0.7,0.5,1.4,0.8,2
			c1.8,4.1,4.3,5.1,8.1,4.6c3.7-0.5,6.3-2.8,8.3-6c0.8-1.2,1.5-2.5,2.1-3.8c0.1-0.2,0.2-0.6,0.5-0.5c0.3,0.1,0.2,0.5,0.2,0.7
			c0,1.1,0.1,2.2,0.5,3.3c1.2,3.3,3.6,4.2,6.5,3.4c3-0.8,5.1-3.1,6.8-5.6c2.4-3.4,3.8-7.3,5.3-11.1c1.6-4,2.5-8.1,3.3-12.4
			c0.1-0.6,0.1-1.3,0.3-1.9c0.2-1.2,0.7-1.4,1.6-0.7c0.9,0.7,1.7,1.5,2.5,2.3c1.2,1.2,1.3,2.7,0.6,4.2c-1.2,2.4-2.4,4.9-3.5,7.4
			c-1.4,3-1.9,6.1-1,9.3c0.9,3.2,3.3,5.2,6.3,5.7c3.9,0.6,7.1-0.8,9.8-3.6c1.9-2,3.1-4.5,4.3-7c0.2-0.4,0.3-0.8,0.6-1.1
			c0.1,0.2,0.2,0.2,0.2,0.3c0.1,0.5,0.3,1,0.4,1.4c0.7,2.7,2.2,4.8,4.7,6.1c1.9,1,4,1.4,6.1,1.1c1.4-0.2,2.7-0.6,4.1-1
			c3-1,5.4-2.8,7.4-5.2c0.7-0.9,1.4-1.2,2.6-1.1c1.8,0.2,3.5-0.2,5.1-1c2-1,3.6-2.5,4.8-4.4c0.2-0.4,0.4-0.7,0.9-1
			c0.2,0.8,0.4,1.5,0.6,2.2c0.9,3.2,2.8,5.5,6.1,6.5c1.9,0.6,3.9,0.8,5.9,0.3c1-0.2,1.9-0.6,2.8-0.9c3.1-0.9,5.4-2.8,7.5-5.2
			c0.7-0.8,1.4-1.2,2.5-1.1c2,0.1,3.9-0.3,5.7-1.4c2.2-1.3,3.8-3.2,5-5.3c1.1-2,2.1-4,2.7-6.3C308.7,69.4,308.7,68.9,308.3,68.5z
			 M182.1,71.5c0.1-0.2,0.2-0.4,0.3-0.6c0.3-0.6,0.7,0.2,1-0.1c0.1-0.7,0.7-0.5,1.1-0.6c0.1-1.1,0.1-1,1.3-0.8c0.8,0.1,1,0.6,1.5,1
			c-0.5,0.3-1,0.3-1.3,0.7c0.2,1.1,0.1,1.2-0.8,1h0c-0.1,0.1-0.2,0.2-0.3,0.3c0.1,0.2,0.3,0.4-0.1,0.4c-0.4,0.1-0.7,0-1.1-0.2
			c-0.1,0-0.3-0.1-0.4-0.1c-0.3,0,0.1,0.7-0.5,0.4l0,0c0,0-0.1,0-0.1,0c-0.4,0.1,0,1.1-0.6,0.7c-0.5-0.3-1-0.7-1-1.5
			C181.3,71.4,181.9,71.8,182.1,71.5z M180.7,73.1c0.2,0,0.3,0.1,0.3,0.3c0,0.3-0.1,0.5-0.4,0.6c-0.2,0-0.4-0.1-0.3-0.3
			C180.3,73.4,180.5,73.2,180.7,73.1z M152.3,74.2c0.1,0,0.3,0,0.3,0.2c0,0.3-0.3,0.3-0.5,0.4c-0.2,0-0.3,0-0.3-0.2
			C151.9,74.4,152.1,74.3,152.3,74.2z M150.4,75.7c0.2-0.1,0.3,0.1,0.3,0.3c0,0.2,0,0.4-0.3,0.5c-0.2,0-0.2-0.2-0.2-0.4
			C150.1,75.9,150.2,75.7,150.4,75.7z M147.1,75.7c0.5-0.2,1.1-0.2,1.7-0.3l0,0c0.6,0.3,0.3,0.6,0,0.9c0,0,0,0.1,0,0.1
			c0.5,0.6-0.2,0.9-0.3,1.3c-0.1,0.4-0.5,0.1-0.7,0.1c-0.6,0,0-0.5-0.3-0.7c-0.1-0.3-0.3-0.6-0.5-0.8
			C146.9,76.1,146.8,75.8,147.1,75.7z M146,76c0.2,0.1,0.6,0.1,0.6,0.5c-0.2,0.3,0,0.9-0.4,0.9c-0.4,0-0.3-0.6-0.5-0.9
			C145.6,76.2,145.8,75.9,146,76z M74.6,85.3c0.1-0.2,0.2-0.4,0.2-0.6c0.1-0.2,0.2-0.3,0.5-0.2c0.2,0.1,0.4,0.1,0.6-0.1
			c0.1-0.1,0.1-0.1,0.2-0.1c0.3,0,0.7-0.5,1-0.2c0.3,0.3-0.2,0.6-0.2,0.9c0.1,0,0.1,0,0.2,0c0.1,0,0.2,0,0.3-0.1
			c0-0.3,0.1-0.6,0.1-0.9c0-0.3-0.4-0.6,0-0.9c0.3-0.2,0.5-0.1,0.7,0.3c0.2,0.3,0.6-0.4,0.9,0.1c-0.3,0.2-0.7,0.6-0.9,0.9
			c0,0.1,0,0.7,0,0.7h0.1c0.1,0-0.2-0.6-0.2-0.6c0,0,0,0,0,0l0.6,0.6h0.1l0,0h-0.3c0,0,0.1-0.3,0.1-0.3c0.1-0.9,0.4-0.8,1-0.6
			c-0.4,0.4-1.5,0.6-1.5,0.3c0,0,0,0,0,0c0,0,0.3,0,0.3,0c0,0.5,0.7,1.2-0.4,1.3c-0.2,0-0.3,0.1-0.5,0.1c0,0.2,0.4,0.4,0,0.4
			c-0.3,0.1-0.7,0.1-1-0.1c-0.2-0.1-0.3-0.1-0.5-0.2c-0.3,0,0.1,0.7-0.5,0.4c0,0-0.1,0-0.1,0c-0.4,0.1,0,1.1-0.6,0.7
			c-0.5-0.3-1-0.7-1-1.5C73.8,85.2,74.4,85.5,74.6,85.3z M73.2,86.9c0.2-0.1,0.2,0.1,0.2,0.3c0,0.2-0.1,0.5-0.4,0.6
			c-0.2,0-0.4-0.1-0.3-0.3C72.8,87.2,73,87,73.2,86.9z M85.2,100.1c0.2,0.3,0.3,0.5,0.4,0.6c0.1,0.1,0.3,0.2,0.2,0.4
			c0,0.1-0.2,0.1-0.3,0.1c-0.2,0-0.3-0.1-0.3-0.3C85.2,100.7,85,100.5,85.2,100.1z M85.6,103.5c-0.3,0.1-0.6,0.3-0.8,0.6
			c0.1,0.2,0.5,0.4,0.2,0.5c-0.2,0.1-0.9,0.3-0.9-0.4c0.1-0.5,0-1.3,0.9-1c-0.2-0.5-1-0.8-0.5-1.3c0.5-0.4,1,0.1,1.3,0.6
			C86.3,103.4,86.3,103.4,85.6,103.5z M121.9,90.6c0,0-0.1,0.2-0.2,0.1c-0.1,0-0.3-0.1-0.3-0.1c0.1-0.5-0.1-1-0.1-1.4
			c0-0.1,0.1-0.2,0.3-0.2c0.2,0.1,0.4,0.3,0.4,0.5C122.1,89.9,121.8,90.2,121.9,90.6z M122.5,86.9c-0.1,0.2-0.1,0.4-0.2,0.5
			c0.3,0.6,0.1,0.7-0.5,0.7c-0.6,0.5-0.8,0-1.1-0.4c0.1-0.2,0.3-0.4,0.1-0.7c0-0.2-0.1-0.3-0.1-0.5c-0.2-0.3,0.3-0.6,0.1-0.9
			c0.1-0.3-0.1-0.8,0.3-1.1c0-0.1,0-0.1,0-0.2c-0.3,0-0.7,0.2-0.9-0.3c-0.2-0.4,0.4-0.4,0.4-0.6c0.1-0.8,0.3-0.9,0.6-0.1
			c0.1,0,0.1,0,0.2,0c0-0.3-0.3-0.6,0.1-0.7c0.3-0.1,0.5,0.1,0.5,0.4c0.2,0.1,0.4,0.2,0.6,0.3c0.8,0.4,0.3,0.8,0,1.3
			c-0.2,0.2-0.3,0.3-0.5,0.5c-0.2,0.3,0,0.3,0.2,0.2c0.3-0.2,0.7-0.7,0.9-0.5c0.4,0.3-0.2,0.7-0.3,1.1
			C122.9,86.4,122.7,86.6,122.5,86.9L122.5,86.9z M150.8,114.4c-0.4,2.6-0.7,5.2-1.9,7.6c-0.5,1-1.2,1.9-2.2,2.6
			c-1.5,1.1-3.5,0.4-3.7-1.4c0-0.9,0.2-1.8,0.6-2.7c1.5-2.8,3.6-5,6.2-6.7c0.2-0.1,0.4-0.3,0.7-0.2
			C150.9,113.8,150.8,114.1,150.8,114.4z M153.9,115c-0.2,0.3,0.6,1-0.4,1.1c0,0.2,0.1,0.7-0.1,0.7c-0.5-0.1-1.1,0.1-1.4-0.3
			c-0.3-0.3,0.3-0.4,0.4-0.6c-0.6-0.8-0.6-0.9,0.5-1.1c-0.2-0.1-0.5-0.2-0.6-0.4l0,0h0c-0.2-0.4-0.1-0.8,0.2-1.2
			c0-0.1,0.1-0.2,0.1-0.3c-0.3-0.1-0.7,0-0.7-0.4c0-0.5,0.6-0.3,0.7-0.6c0-0.4,0.2-0.5,0.6-0.6c0.3-0.1,0.4,0.2,0.6,0.4
			c0.1,0.2,0.2,0.3,0.3,0.5c0.7,0.3,0.8,0.7,0.2,1.2c0.2,0.1,0.4,0.2,0.5,0.3C154.8,114.3,154.6,114.9,153.9,115z M154.8,104.8
			c0,0-0.2-0.1-0.2-0.2c0-0.4,0.2-0.6,0.8-0.8C155.2,104.3,155,104.6,154.8,104.8z M192.3,85.1c0.2,0,0.3,0.2,0.3,0.4
			c0,0.2-0.1,0.3-0.3,0.3c-0.2,0-0.3-0.2-0.3-0.4C192.1,85.3,192.2,85.1,192.3,85.1z M191.6,90.5c0.2-0.4,0.2-0.9,0.1-1.3
			c0.3,0.4,0.9,0.6,0.4,1.2c0.2,0.1,0.4,0.2,0.4,0.6C192.2,90.7,191.6,91.3,191.6,90.5z M192.5,89c-0.2-0.2-0.5-0.3-0.4-0.7
			c0-0.1,0.2-0.2,0.3-0.1C192.7,88.3,192.7,88.6,192.5,89z M192.6,86.5c0.1,0,0.1,0,0.2-0.1c0.1,0.2,0.3,0.4,0.4,0.6
			c0.1,0.1,0.3,0.2,0.2,0.3c0,0.1-0.2,0.1-0.3,0.1c-0.2,0-0.3-0.1-0.4-0.3C192.6,87,192.6,86.7,192.6,86.5z M193.3,89.7
			c-0.5,0.1-0.4-0.3-0.5-0.6c0-0.2,0.1-0.4,0.2-0.4c0.4,0.1,0.5,0.5,0.8,0.7C193.7,89.7,193.5,89.7,193.3,89.7z M216.2,82.1
			c0.3,0.5,0.6,0.7,0.4,1.1c0,0.1-0.2,0.1-0.3,0C215.9,82.9,216.1,82.6,216.2,82.1z M214.6,91.3c-0.1-0.3,0.2-0.4,0.4-0.4
			c0.3-0.1,0.5,0.1,0.6,0.4c0,0.3-0.1,0.3-0.3,0.3C215,91.5,214.7,91.6,214.6,91.3z M216.3,92.8c-0.4-0.1-0.6-0.3-0.9-0.9
			c0.5,0.3,0.9,0,1,0.6C216.5,92.6,216.4,92.8,216.3,92.8z M216.6,88.7c-0.2,0.3-0.6,0.6-0.6,0.6c0,0.1,0,0.2,0,0.3
			c0,0.1-0.2,0.2-0.1,0.3c0.1,0,0.1,0,0.2,0.1c-0.3,0.5-0.2,0.7,0.3,0.9c0.1,0-0.1,0.4-0.4,0.3c-0.2-0.1-0.5-0.2-0.6-0.4
			c-0.1,0-0.2-0.1-0.3-0.1c-0.5,0.1-0.9-0.1-1-0.5c-0.1-0.4,0.4-0.4,0.6-0.6c0.1-0.1,0.2-0.1,0.4-0.2c-0.1-0.1-0.1-0.2-0.2-0.2h0
			l0-0.1c-0.6,0.5-0.7,0.1-0.7-0.4c-0.3-0.6,0.2-0.8,0.5-1c-0.2,0-0.5,0.1-0.7,0c-0.3,0-0.6-0.2-0.5-0.5c0.1-0.4,0.6-0.7,0.8-1.1
			c0.1-0.2,0.6-0.2,0.9,0.2l0,0c0.3,0.2,0.7,0.5,1,0.7c0.1,0,0.2,0.1,0.3,0.1C216.9,88,217.1,88.3,216.6,88.7z M222.2,94.3
			c-0.2,0.3-0.5,0.3-0.9,0.1c0.4-0.2,0.5-0.5,0.9-0.3C222.2,94.1,222.2,94.3,222.2,94.3z M254.8,78c-0.1,0.7-0.2,1.4-0.4,2.1
			c-0.2,0.6-0.6,1-1.2,0.8c-1.1-0.2-1.9,0.2-2.5,1.1c-0.6,1-0.4,2,0.2,3c0.8,1.2,0.8,1.4-0.3,2.4c-1.3,1.2-2.7,2.4-4.5,2.6
			c-2.5,0.4-4.4-0.8-5.2-3.1c-1-2.8-1.2-5.7-0.7-8.7c0.5-3.2,1.6-6.3,3.3-9.1c1-1.7,2.5-2.8,4-4c1.4-0.8,2.9-0.8,4.4-0.4
			c1.7,0.5,2.5,1.9,2.9,3.5C255.6,71.5,255.4,74.8,254.8,78z M257.8,65.8c-0.3,0.2-0.6,0-0.8-0.4c0,0-0.1,0-0.1,0c0,0.1,0,0.1,0,0.2
			c-0.4,0.9-1.1,0.2-1.6,0.1c-0.5-0.1-0.6-0.8-0.4-1.2c0.2-0.5,0.5-0.2,0.8,0c0,0,0.1,0,0.1,0c0.1-0.1,0.2-0.1,0.4-0.2
			c-0.5-0.3,0-0.6,0.1-0.9c-0.1-0.1-0.1-0.1-0.2-0.2c-0.3,0.5-0.7,0.6-1.2,0.3c-0.2-0.1-0.4-0.3-0.2-0.5c0.4-0.3,0.4-0.5,0.2-0.8
			c0-0.1,0-0.3,0.1-0.3c0.3-0.1,0.4,0.2,0.6,0.3c0.2,0,0.4,0,0.6-0.1c0.6,0.5,0.9,1.1,1.5,1.5c0.6,0.4,0,0.7-0.3,0.9
			c0.1,0.2,0.1,0.3,0.2,0.5C257.7,65.3,258.1,65.5,257.8,65.8z M259.4,69.7c-0.3,0-0.4-0.3-0.5-0.5c-0.1-0.2,0-0.4,0.3-0.4
			c0.3,0,0.4,0.3,0.5,0.5C259.6,69.5,259.6,69.7,259.4,69.7z M291.5,57.8c0.2-0.3,0.4-0.4,0.6-0.2c0.2,0.2,0.3,0.4,0.2,0.7
			c-0.3,0.5-0.7,0.8-1.3,0.4C291.2,58.4,291.4,58.1,291.5,57.8z M290.7,75.3c-0.2,0.8-0.6,1.3-1.5,1.1c-1-0.2-1.7,0.2-2.2,1
			c-0.5,0.8-0.5,1.8,0,2.7c1,1.8,1,1.9-0.6,3.3c-1.2,1-2.4,1.9-4,2.1c-2.4,0.3-4.4-0.8-5.2-3.1c-1.2-3.3-1.2-6.7-0.5-10.1
			c0.6-2.8,1.6-5.4,3.2-7.8c1-1.6,2.4-2.8,4-3.8c1.8-1.1,4.8-0.7,6.1,0.7c1,1.1,1.2,2.5,1.4,3.9c0,0.1,0,0.3,0.1,0.4
			C291.8,68.9,291.3,72.1,290.7,75.3z M294.1,61.2c-0.2,0.1-0.5,0-0.7-0.1c-0.1,0-0.3,0-0.4,0c-0.5,0.2-0.9-0.2-1.4-0.2
			c-0.3-0.1,0-0.5-0.2-0.6c-0.3-0.2-0.5-0.3-0.2-0.6c0.4-0.4,0.4,0.2,0.6,0.3c0-0.1,0.1-0.1,0.1-0.2c0.1-0.1,0.2-0.2,0.4-0.3l0,0
			c0-0.5-0.1-1.1,0.7-1.1c0.2,0.1,0.3,0.2,0.5,0.3c0.6,0.3,1,0.6,0.2,1.2C294.7,60.3,294.7,60.4,294.1,61.2z M295.5,65
			c-0.2-0.1-0.4-0.3-0.5-0.6c0-0.1,0.1-0.3,0.3-0.3c0.3,0,0.5,0.3,0.5,0.6C295.8,64.9,295.7,65,295.5,65z"/>
		<path class="st3" d="M65.8,119.3c-1.5-0.1-3-0.3-4.3-1.1c-2.6-1.7-4.1-4.2-5.4-6.9c-1.6-3.5-2.6-7.1-3.9-10.7
			c-1-2.8-2.5-5.2-5.2-6.7c-0.9-0.5-0.9-0.7-0.1-1.3c0.8-0.6,1.8-1.1,2.5-1.7c3.5-3,6.2-6.6,8.3-10.7c1.7-3.2,3-6.6,4-10.1
			c0.4-1.4,1-2.7,1.2-4.1c0.1-0.6,0.2-1.3-0.3-1.8c-1.6-1.6-5.1-0.9-5.8,1.2c-0.9,2.7-1.6,5.5-2.6,8.2c-1.6,4.4-3.7,8.5-6.7,12.2
			c-1.8,2.2-4,3.9-6.5,5.1c-1,0.5-1.5,0.1-1.3-1c0.2-1.3,0.5-2.5,0.6-3.8c0.4-4.1,1.2-8,1.7-12.1c0.2-2.1,1.1-4,1.2-6.1
			c0-0.8-0.2-1.5-0.9-1.9c-1.7-1-4.7-0.1-5.5,1.6c-1.6,3.2-4.2,5.5-7,7.5c-2.6,1.9-5.5,3.5-8.3,5.1c-2.5,1.4-5,2.9-6.9,5.2
			c-1.6,2-2.3,4.2-2.1,6.6c0.4,4.8,4.5,8,9.3,7.4c1.2-0.2,1.9-0.8,2-1.9c0.1-1-0.3-1.5-1.5-2c-1.5-0.5-2.8-1.1-3.2-2.8
			c-0.4-1.3-0.3-2.6,0.2-3.9c1-2.6,3.2-4,5.3-5.4c3.4-2.2,6.7-4.6,9.5-7.6c0.5-0.5,0.9-1.1,1.5-1.7c0.3,0.3,0.2,0.5,0.2,0.8
			c-0.7,3.6-1,7.2-1.6,10.7c-0.6,3.6-0.8,7.2-1.4,10.8c-0.6,3.1-0.9,6.3-1.4,9.4c-0.5,2.9-0.9,5.7-2.2,8.4c-1,2-2.1,3.7-4.6,4.3
			c-2.5,0.5-5.3-1-6.1-3.4c-0.9-2.6-0.4-5,0.7-7.3c0.6-1.2,0.4-1.9-0.4-2.5c-1.2-0.8-2.5-0.8-3.3,0c-1.9,2.1-3.1,4.5-3.2,7.3
			c-0.2,3.2,0.7,6.1,3.1,8.3c1.9,1.7,4.3,2.4,6.9,2.4c5.9,0,10.4-2.9,12.6-8.5c1.9-5,2.8-10.2,3.4-15.5c0.1-0.6,0.1-1.2,0.3-1.7
			c0.2-0.7,0.6-1.3,1.4-1.3c0.7,0,1.3,0.1,2,0.3c2.3,1,3.7,2.7,4.7,4.9c1.2,2.7,2.2,5.5,3.2,8.4c1,3,2.2,5.9,3.9,8.6
			c2.3,3.7,5.5,5.7,9.8,5.7c2.5,0,3.5-0.8,3.7-3.1C67.4,119.9,67,119.4,65.8,119.3z M52.4,80.1c0-0.1,0.1-0.1,0.1-0.2
			c0.3-0.5,1-0.4,1.3-0.7c-0.2-0.6,0.4-1.5,1.2-1.7c0.2-0.1,0.5,0,0.6-0.3c0-0.2,0-0.4,0.3-0.4c0.3,0.1,0.4,0.2,0.4,0.5
			c0.2,1-0.1,1.7-1.1,2.2c0.3,0.5-0.5,0.6-0.4,1c-0.3,0.4,0.1,0.9-0.4,1.3c-0.3,0.2-0.6,0.4-0.3,0.9c0.1,0.2,0,0.4-0.2,0.6
			c-0.4,0.2-1.2-0.1-1.2-0.6c0-0.4,0.3-0.1,0.5-0.2c0.1-0.1,0.3-0.2,0.3-0.4c-0.1-0.2-0.3-0.1-0.4-0.1c-0.5,0.1-0.7-0.1-0.8-0.5
			c-0.1-0.3,0-0.6,0.2-0.9C52.4,80.5,52.3,80.3,52.4,80.1z M17.6,87.9c-0.3,0.1-0.3-0.3-0.4-0.4c-0.2-0.3-0.4-0.4-0.6,0
			c0.1,0.4,0.1,0.8-0.4,0.4c-0.2-0.1-0.5-0.1-0.5-0.5c0.4-0.4,0.7-0.8,1.1-1.2c0.4,0.1,0.2,0.7,0.7,0.7c0.1-0.3-0.1-0.9,0.5-1
			c0.4-0.1,0.3,0.3,0.3,0.6c0,0.3,0.1,0.6,0.1,0.9C18.5,87.9,17.9,87.8,17.6,87.9z M19.9,83.6c-0.2,0-0.3,0-0.3-0.2
			c0-0.3,0.2-0.4,0.4-0.5c0.2,0,0.3,0.1,0.3,0.2C20.2,83.3,20.2,83.5,19.9,83.6z M35.1,90.2L35.1,90.2L35.1,90.2
			c0.5-0.2-0.1-0.9,0.6-1c0.2,0,0.4,0,0.5-0.1c0.1-0.1,0.2-0.2,0.4-0.4c0,0.3-0.1,0.6,0.2,0.8c0,0.2,0,0.5-0.1,0.7
			c0.4,0.1,1,0.1,0.9,0.5c-0.1,0.5-0.5,1-1.2,0.9c-0.1,0-0.2,0.1-0.3,0.1c0.1,0.5-0.1,0.8-0.6,0.8c-0.5-0.1-0.4-0.5-0.4-0.8
			c0-0.2,0.1-0.4,0.2-0.6c0-0.1,0.1-0.2,0.1-0.4c-0.3,0-0.7,0.1-0.7-0.4C34.6,90.1,34.8,90,35.1,90.2z M35.7,97.1
			c-0.4,0-0.3-0.3-0.4-0.6c0-0.2-0.2-0.5,0.2-0.6c0.3,0,0.4,0.4,0.5,0.6C36.1,96.8,35.9,97.1,35.7,97.1z M36.5,93.1
			c-0.2,0.2,0,0.4,0.1,0.5c0.3,0.5-0.5,1.1,0.1,1.5c-0.1,0.2-0.3,0.2-0.4,0c-0.1-0.1-0.2-0.4-0.4-0.4c0.1,0.3,0.1,0.6-0.3,0.5
			c-0.4,0-0.9-0.2-0.7-0.8c0.1-0.2,0.4-0.3,0.1-0.6c-0.6-0.6-0.3-0.8,0.4-0.9c0.3,0,0.6-0.1,0.9-0.2c0.2-0.7,0.7-1,1.5-0.9
			C37.5,92.5,37.4,93.3,36.5,93.1z M49.4,99.7c0.3,0.4,0.8,0.4,1,0.8c0.1,0.1-0.1,0.3-0.2,0.3c-0.3,0.1-1-0.6-1-0.9
			C49.2,99.9,49.3,99.9,49.4,99.7z M50.9,103.5c-0.4-0.1-0.3,0.2-0.4,0.4c0.2,0.1,0.5,0.3,0.3,0.5c-0.2,0.2-0.6,0.3-0.9,0.2
			c-0.4-0.1-0.1-0.4-0.1-0.6h0h0c0.2-0.6-0.5-0.6-0.7-1c0.5-0.2,1.2,0.6,1.4-0.3c-0.1,0-0.1-0.1-0.2-0.1c-0.5,0.5-0.5-0.2-0.7-0.3
			c-0.2-0.1-0.2-0.3-0.1-0.4c0.3-0.2,0.4,0.1,0.7,0.2c0.6,0,1.3,0,1.2,0.9C51.5,103.6,51.5,103.6,50.9,103.5z"/>
		<path class="st3" d="M152.5,98.8c0.5,0.4,0,1,0.2,1.4c0-0.4,0.2-0.8,0.1-1.2C152.9,98.8,152.8,98.7,152.5,98.8z"/>
		<path class="st3" d="M152.5,98.8c0.3-0.1,0.3,0,0.4,0.3c0,0.4-0.1,0.8-0.1,1.2c0.2-0.8,0.5-1.6,0.4-2.6
			C152.7,98,152.6,98.4,152.5,98.8z"/>
		<path class="st3" d="M183.4,72.3c0.1,0,0.3,0.1,0.4,0.1c0.2-0.9,0.7-0.4,1.1-0.3c0.1-0.1,0.2-0.2,0.3-0.3h0h0
			c-0.2-0.3-0.5-0.4-0.6-0.8c0.6,0.4,0.8-0.6,1.4-0.2c0.3-0.4,0.8-0.4,1.3-0.7c-0.5-0.3-0.8-0.8-1.5-1c-1.2-0.2-1.2-0.3-1.3,0.8
			c0.2,0.5,0,0.9-0.4,1.1c-0.4,0.2-0.5-0.2-0.7-0.5c-0.3,0.3-0.8-0.5-1,0.1C183.3,71.1,183.6,71.6,183.4,72.3z M185.2,69.3
			c0.5,0,0.2,0.5,0.5,0.7c0.1,0.2,0,0.3-0.2,0.4c-0.4,0.1-0.5-0.3-0.6-0.6C184.7,69.5,184.9,69.3,185.2,69.3z"/>
		<path class="st3" d="M153.8,113c0.1-0.2-0.1-0.4-0.2-0.6c-0.1,0-0.3-0.1-0.4-0.1c0,0.3,0,0.7-0.4,0.6c0,0.1-0.1,0.2-0.1,0.3
			c0.1,0.1,0.2,0.1,0.3,0.2c0.2,0.2,0.5,0.5,0.3,0.8c-0.2,0.3-0.5,0.2-0.8,0.1l0,0c0.1,0.3,0.4,0.3,0.6,0.4c0.6,0.2,0.8,0.6,0.5,1.2
			c0,0.1,0,0.1,0.1,0.2c1-0.1,0.1-0.8,0.4-1.1c-0.3-1,0.5-1,1.1-1.2c-0.2-0.1-0.4-0.2-0.5-0.3C154.1,113.5,153.3,114.1,153.8,113z"
			/>
		<path class="st3" d="M293.7,60c0.8-0.6,0.4-0.9-0.2-1.2c-0.2-0.1-0.4-0.2-0.5-0.3c0,0.5,0,1-0.7,1.1l0,0l0,0
			c-0.1,0.1-0.2,0.2-0.4,0.3c0.5,0.3,1.1,0.5,1.1,1.2c0.1,0,0.3,0,0.4,0c-0.1-0.4-0.6-0.8-0.3-1c0.4-0.2,0.4,0.5,0.8,0.7
			c0.1,0,0.1,0.3,0.2,0.5C294.7,60.4,294.7,60.3,293.7,60z"/>
		<path class="st3" d="M85.8,102.6c-0.3-0.5-0.8-1-1.3-0.6c-0.5,0.4,0.3,0.8,0.5,1.3c-1-0.3-0.8,0.5-0.9,1c0.2,0,0.5-0.1,0.7-0.1
			c0.1-0.3,0.4-0.5,0.8-0.6C85.7,103.2,85,102.7,85.8,102.6z"/>
		<path class="st3" d="M122.5,85.5c-0.2,0-0.4,0-0.2-0.2c0.1-0.2,0.3-0.3,0.5-0.5c-0.2,0.1-0.4,0.2-0.6,0.2h0l0,0
			c-0.3-0.2-0.3-0.6-0.7-0.8c-0.1,0.1-0.1,0.1-0.2,0.2c0,0.1,0,0.1,0,0.2c0.1,0.1,0.2,0.2,0.3,0.3c0.1,0.2,0.4,0.4,0.2,0.7
			c-0.2,0.3-0.5,0.2-0.8,0.1c0.2,0.3-0.3,0.6-0.1,0.9c0.6-0.2,1.3-0.6,1.7,0.3c0.2-0.3,0.4-0.5,0.6-0.8
			C122.5,86.3,122.5,85.9,122.5,85.5z"/>
		<path class="st3" d="M257.3,64.6c0.3-0.3,0.9-0.5,0.3-0.9c-0.6-0.4-1-1.1-1.5-1.5c0.2,0.3,0.2,0.7,0,1l0,0l0,0h0h0c0,0,0,0,0,0
			c0.1,0.1,0.1,0.1,0.2,0.2c0.1-0.1,0.3-0.3,0.5-0.2c0.2,0.1,0.1,0.3,0.1,0.5c-0.1,0.3-0.3,0.5-0.6,0.6c-0.1,0.1-0.2,0.1-0.4,0.2
			c0.4,0.3,0.8,0.5,1.1,0.9c0,0,0.1,0,0.1,0C257.2,65.2,256.2,64.5,257.3,64.6z"/>
		<path class="st3" d="M182.2,73.5c0.7,0.4,0.3-0.6,0.6-0.7c0,0,0.1,0,0.1,0c-0.5-0.3-0.7-0.7-0.8-1.3c-0.2,0.3-0.8-0.1-0.9,0.5
			C181.1,72.8,181.7,73.2,182.2,73.5z"/>
		<path class="st3" d="M74.7,87.3c0.7,0.4,0.3-0.6,0.6-0.7c0,0,0.1,0,0.1,0c-0.5-0.3-0.7-0.7-0.8-1.3c-0.2,0.3-0.8-0.1-0.9,0.5
			C73.6,86.6,74.2,87,74.7,87.3z"/>
		<path class="st3" d="M182.9,72.8L182.9,72.8L182.9,72.8c0.6,0.3,0.2-0.5,0.5-0.4c-0.4-0.4-0.7-1-1-1.4c-0.1,0.2-0.2,0.4-0.3,0.6
			C182.6,71.8,183.1,72.1,182.9,72.8z"/>
		<path class="st3" d="M182.3,70.9c0.3,0.5,0.6,1,1,1.4C183.6,71.6,183.3,71.1,182.3,70.9z"/>
		<path class="st3" d="M182.9,72.8L182.9,72.8c0.1-0.7-0.3-1-0.8-1.3C182.2,72,182.4,72.5,182.9,72.8z"/>
		<path class="st3" d="M75.4,86.6c0.5,0.3,0.2-0.5,0.5-0.4c0.2-0.8-0.1-1.3-1.1-1.4c-0.1,0.2-0.2,0.4-0.2,0.6
			C75.1,85.6,75.5,85.9,75.4,86.6z"/>
		<path class="st3" d="M75.4,86.6c0.1-0.7-0.3-1-0.8-1.3C74.7,85.8,74.9,86.3,75.4,86.6z"/>
		<path class="st3" d="M215.1,86.1L215.1,86.1c-0.3-0.3-0.8-0.4-0.9-0.2c-0.2,0.4-0.6,0.7-0.8,1.1c-0.1,0.2,0.2,0.5,0.5,0.5
			c0.2,0,0.5,0,0.7,0C214.7,87.1,214.8,86.6,215.1,86.1L215.1,86.1z"/>
		<path class="st3" d="M76.2,85.3c0.3,0.3,0.1,0.6-0.3,0.8c0.2,0.1,0.3,0.1,0.5,0.2c0-0.8,0.1-0.8,1-0.4c0.2,0,0.4-0.1,0.6-0.1
			c-0.3-0.3-0.8-0.4-1-0.9c-0.1,0-0.1,0-0.2,0c-0.6,0.3-0.8,0-0.9-0.6c-0.2,0.2-0.3,0.3-0.6,0.1c-0.2-0.1-0.4,0-0.5,0.2
			C75.5,84.5,75.8,84.9,76.2,85.3z"/>
		<path class="st3" d="M75.9,86.1c0.4-0.2,0.5-0.5,0.3-0.8c-0.3-0.4-0.7-0.8-1.3-0.6C75.8,84.8,76.1,85.3,75.9,86.1z"/>
		<path class="st3" d="M147.5,77.2c0.5-0.2,0.7-0.7,1.3-0.8c0,0,0-0.1,0-0.1c-0.2,0-0.5,0.1-0.8-0.1c0.3-0.3,0.5-0.5,0.8-0.8
			c-0.6,0-1.2,0-1.7,0.3c-0.3,0.1-0.2,0.4-0.1,0.6C147.2,76.6,147.4,76.9,147.5,77.2z"/>
		<path class="st3" d="M215.6,88.1c-0.9,0,0-0.7-0.3-1c-0.2-0.1,0.2-0.2,0.3-0.3c0.2,0,0.4,0,0.6,0c-0.3-0.2-0.7-0.5-1-0.7
			c0.2,0.6,0.2,1.1-0.5,1.4c-0.4,0.2-0.8,0.4-0.5,1c0.2-0.1,0-0.7,0.4-0.5c0.3,0.1,0.6,0.5,0.3,0.9l0,0.1h0h0
			C215.1,88.7,215.3,88.4,215.6,88.1z"/>
		<path class="st3" d="M215.1,86.1L215.1,86.1c-0.3,0.4-0.3,0.9-0.5,1.4C215.2,87.2,215.2,86.7,215.1,86.1z"/>
		<path class="st3" d="M214.6,89.4c-0.2,0.2-0.7,0.2-0.6,0.6c0.1,0.4,0.5,0.6,1,0.5c0.1,0,0.2,0,0.3,0.1c0.1-0.3,0.2-0.5,0.3-0.8
			c0-0.1,0-0.2-0.1-0.3c-0.2-0.1-0.4-0.2-0.6-0.3C214.9,89.3,214.7,89.3,214.6,89.4z"/>
		<path class="st3" d="M153.3,116c-0.2-0.4-0.3-0.8-0.3-1.2c-1.1,0.2-1.2,0.3-0.5,1.1C152.8,115.8,153,116.1,153.3,116z"/>
		<path class="st3" d="M153.5,115.9c0.3-0.6,0.1-1-0.5-1.2c0.1,0.4,0.2,0.9,0.3,1.2C153.4,116,153.5,116,153.5,115.9z"/>
		<path class="st3" d="M215.7,87.9c0,0.1,0,0.2,0.1,0.3c-0.2,0.4-0.4,0.8-0.9,0.8c0.1,0.1,0.1,0.2,0.2,0.2c0.4-0.2,0.4,0.1,0.6,0.3
			c0-0.1,0-0.2,0-0.3c-0.2-0.6,0.1-0.8,0.5-1c0.6-0.3,0.3,0.2,0.3,0.4c0.5-0.4,0.4-0.7-0.1-1.8C216.4,87.5,216,87.7,215.7,87.9z"/>
		<path class="st3" d="M215.8,88.2c0-0.1-0.1-0.2-0.1-0.3c0,0-0.1,0.1-0.1,0.1c-0.2,0.3-0.5,0.6-0.7,0.9h0
			C215.4,89,215.5,88.6,215.8,88.2z"/>
		<path class="st3" d="M215,89.2c0.2,0.1,0.4,0.2,0.6,0.3C215.4,89.4,215.4,89.1,215,89.2z"/>
		<path class="st3" d="M147.5,77.2c0.2,0.2-0.4,0.6,0.3,0.7c0.3,0,0.6,0.3,0.7-0.1c0.1-0.4,0.8-0.8,0.3-1.3
			C148.5,76.9,148.3,77.5,147.5,77.2z"/>
		<path class="st3" d="M148.8,76.4c-0.6,0-0.8,0.6-1.3,0.8C148.3,77.5,148.5,76.9,148.8,76.4z"/>
		<path class="st3" d="M120.8,86.6c0,0.2,0.1,0.3,0.1,0.5c0.5,0.2,0.9,0.4,1.4,0.4c0.1-0.2,0.1-0.4,0.2-0.5l0,0h0
			C121.9,86.9,121.4,86.9,120.8,86.6z"/>
		<path class="st3" d="M120.8,86.6c0.5,0.4,1.1,0.3,1.7,0.3h0C122.1,86,121.5,86.4,120.8,86.6z"/>
		<path class="st3" d="M154.5,113.5c0.6-0.5,0.5-0.9-0.2-1.2c-0.1,0-0.3,0-0.4,0.1C154.1,112.7,154.3,113.1,154.5,113.5z"/>
		<path class="st3" d="M153.6,112.4c0.1,0.2,0.2,0.5,0.2,0.6c-0.5,1.1,0.3,0.5,0.6,0.5c-0.1-0.4-0.3-0.8-0.6-1.2
			C153.8,112.4,153.7,112.4,153.6,112.4z"/>
		<path class="st3" d="M292.3,58.3c0.2-0.2,0.1-0.5-0.2-0.7c-0.3-0.2-0.5-0.1-0.6,0.2c-0.2,0.3-0.4,0.6-0.6,0.9
			C291.6,59.1,292,58.8,292.3,58.3z"/>
		<path class="st3" d="M78.6,84.5C78.6,84.5,78.6,84.5,78.6,84.5C78.6,84.5,78.6,84.5,78.6,84.5L78.6,84.5z"/>
		<polygon class="st3" points="78.6,84.5 78.6,84.5 78.6,84.5 		"/>
		<path class="st3" d="M78,85.8c1.1-0.1,0.5-0.8,0.5-1.3c-0.1,0-0.3-0.1-0.4-0.1h0l0,0c-0.1,0.4-0.3,0.7-0.8,0.4
			c-0.1,0-0.2,0-0.3,0.1C77.4,85.2,78.1,85.1,78,85.8z"/>
		<path class="st3" d="M78,85.8c0.1-0.8-0.7-0.6-1-0.9C77.2,85.4,77.7,85.5,78,85.8z"/>
		<path class="st3" d="M255.5,65.5c-0.4-0.2,0.2-0.6,0.2-0.9c-0.3-0.3-0.6-0.5-0.8,0c-0.1,0.4,0,1,0.4,1.2c0.5,0.1,1.1,0.7,1.6-0.1
			C256.4,66,255.8,65.7,255.5,65.5z"/>
		<path class="st3" d="M291.9,59.9c0,0.1-0.1,0.1-0.1,0.2c-0.1,0.3-0.2,0.6-0.2,0.9c0.5,0,0.9,0.4,1.4,0.2
			C292.6,60.8,291.9,60.6,291.9,59.9z"/>
		<path class="st3" d="M291.9,59.9c0,0.7,0.7,0.9,1.1,1.2C293,60.4,292.4,60.2,291.9,59.9z"/>
		<path class="st3" d="M122.2,84.2c0,0,0,0.1,0,0.1c0,0,0.1,0,0.1,0c0.2,0.1,0.4,0.1,0.4,0.3c0.3-0.4,0.9-0.8,0-1.3
			C122.4,83.6,121.8,83.5,122.2,84.2z"/>
		<path class="st3" d="M122.3,84.4C122.3,84.4,122.2,84.4,122.3,84.4c-0.1,0.1-0.2,0.4-0.2,0.6h0c0.2-0.1,0.4-0.2,0.6-0.2
			C122.7,84.5,122.5,84.5,122.3,84.4z"/>
		<path class="st3" d="M186.1,70.9c-0.3,0.3-0.5,0.7-0.8,1C186.2,72.1,186.3,72,186.1,70.9z"/>
		<path class="st3" d="M184.7,71.1c0.1,0.5,0.4,0.6,0.6,0.8h0c0.3-0.3,0.5-0.7,0.8-1C185.5,70.5,185.3,71.5,184.7,71.1z"/>
		<path class="st3" d="M256.9,65.6c0-0.1,0-0.1,0-0.2c-0.2,0-0.4,0-0.6-0.1C256.4,65.4,256.7,65.5,256.9,65.6z"/>
		<path class="st3" d="M255.8,64.5c0,0-0.1,0-0.1,0c0,0.2,0.1,0.4,0.3,0.5C255.8,64.9,255.8,64.8,255.8,64.5z"/>
		<path class="st3" d="M255.8,64.5c0,0.2,0,0.4,0.1,0.5c0.1,0.1,0.2,0.2,0.3,0.3c0.2,0.1,0.4,0.1,0.6,0.1
			C256.6,65,256.2,64.8,255.8,64.5z"/>
		<path class="st3" d="M255.9,65.1c-0.1-0.1-0.2-0.3-0.3-0.5c-0.1,0.3-0.7,0.7-0.2,0.9c0.4,0.2,0.9,0.5,1.4,0.1
			c-0.2-0.1-0.4-0.2-0.6-0.3C256.1,65.3,256,65.2,255.9,65.1z"/>
		<path class="st3" d="M256.3,65.3c-0.1-0.1-0.2-0.2-0.3-0.3C256,65.2,256.1,65.3,256.3,65.3z"/>
		<path class="st3" d="M184.5,70.1c-0.4,0.1-1-0.1-1.1,0.6C183.8,70.7,184.2,70.5,184.5,70.1z"/>
		<path class="st3" d="M184.1,71.2c0.4-0.2,0.6-0.6,0.4-1.1c-0.3,0.4-0.7,0.6-1.1,0.6C183.5,71,183.7,71.4,184.1,71.2z"/>
		<path class="st3" d="M152.5,115.9c-0.1,0.2-0.7,0.3-0.4,0.6c0.3,0.4,1,0.2,1.4,0.3c0.2,0,0-0.4,0.1-0.7c-0.1,0-0.1,0-0.1-0.1
			C153.1,116.5,152.8,116.3,152.5,115.9z"/>
		<path class="st3" d="M153.4,116c0,0,0.1,0,0.1,0.1c0-0.1,0-0.1-0.1-0.2C153.5,116,153.4,116,153.4,116z"/>
		<path class="st3" d="M153.4,116C153.4,116,153.4,116,153.4,116C153.4,116,153.4,116,153.4,116c-0.4,0-0.7-0.3-1-0.2
			C152.8,116.3,153.1,116.5,153.4,116z"/>
		<path class="st3" d="M153.4,116C153.4,116,153.4,116,153.4,116c0.1,0,0.1,0,0.2-0.1C153.5,116,153.4,116,153.4,116
			C153.4,116,153.4,116,153.4,116z"/>
		<path class="st3" d="M216.3,86.9c-0.1,0-0.1-0.1-0.2-0.1c-0.1,0.2-0.2,0.3-0.3,0.5C215.9,87.2,216.1,87.1,216.3,86.9z"/>
		<path class="st3" d="M215.5,86.8c-0.1,0-0.5,0.1-0.3,0.3c0.4,0.3-0.5,0.9,0.3,1c-0.1-0.3,0.1-0.6,0.2-0.7c0.1-0.2,0.2-0.3,0.3-0.5
			C215.9,86.8,215.7,86.8,215.5,86.8z"/>
		<path class="st3" d="M215.7,87.9c0.3-0.3,0.7-0.4,0.6-1c-0.2,0.1-0.3,0.2-0.5,0.4C215.7,87.5,215.7,87.7,215.7,87.9z"/>
		<path class="st3" d="M215.8,87.3c-0.2,0.2-0.3,0.4-0.2,0.7c0,0,0.1-0.1,0.1-0.1C215.7,87.7,215.7,87.5,215.8,87.3z"/>
		<path class="st3" d="M121.4,84.1C121.4,84.1,121.4,84.1,121.4,84.1c0-0.2,0-0.4,0-0.6c-0.3-0.8-0.4-0.7-0.6,0.1
			c0,0.2-0.6,0.2-0.4,0.6c0.2,0.4,0.6,0.2,0.9,0.3C121.2,84.3,121.3,84.2,121.4,84.1z"/>
		<path class="st3" d="M121.4,84.1C121.4,84.1,121.4,84.1,121.4,84.1c-0.2,0.1-0.2,0.2-0.1,0.3c0.1-0.1,0.1-0.1,0.2-0.2
			C121.4,84.2,121.4,84.1,121.4,84.1z"/>
		<path class="st3" d="M153.2,112.1c0.2,0,0.3,0,0.5,0.1c0,0,0,0.1,0.1,0.1c0.2-0.1,0.3,0,0.5,0c-0.1-0.2-0.2-0.3-0.3-0.5
			c-0.1-0.2-0.2-0.5-0.6-0.4c-0.4,0.1-0.6,0.2-0.6,0.6c0.1,0.1,0.2,0.1,0.3,0.2C153.1,112.1,153.2,112.1,153.2,112.1z"/>
		<path class="st3" d="M153.7,112.2c-0.1-0.1-0.3-0.1-0.5-0.1c0,0-0.1,0.1-0.1,0.1c0,0,0.1,0.1,0.1,0.1c0.1,0,0.3,0.1,0.4,0.1
			C153.7,112.3,153.7,112.3,153.7,112.2C153.7,112.2,153.7,112.2,153.7,112.2z"/>
		<path class="st3" d="M153.8,112.2c0,0,0.1,0.1,0.1,0.1c0.1,0,0.3,0,0.4-0.1C154.1,112.2,153.9,112.1,153.8,112.2z"/>
		<path class="st3" d="M153.8,112.2c0,0-0.1,0.1-0.1,0.1c0.1,0,0.2,0,0.2,0C153.8,112.3,153.8,112.3,153.8,112.2z"/>
		<path class="st3" d="M79,83.5c-0.3-0.5-0.8,0.2-0.9-0.1c-0.2-0.4-0.3-0.6-0.7-0.3c-0.4,0.3,0,0.6,0,0.9c0.2,0,0.5,0.1,0.7,0.1
			C78.3,83.7,78.7,83.7,79,83.5z"/>
		<path class="st3" d="M121.7,89c-0.2,0-0.3,0.1-0.3,0.2c-0.1,0.5,0.2,0.9,0.1,1.4c0,0,0.2,0.1,0.3,0.1c0.1,0,0.2-0.1,0.2-0.1
			c-0.2-0.4,0.1-0.7,0.2-1C122.1,89.3,122,89.1,121.7,89z"/>
		<path class="st3" d="M256,63.2c-0.4-0.3-0.2-0.7,0-1c-0.2,0-0.4,0-0.6,0.1c0,0.4-0.3,0.7-0.5,1C255.3,63.6,255.7,63.5,256,63.2z"
			/>
		<polygon class="st3" points="256,63.2 256,63.2 256,63.2 		"/>
		<path class="st3" d="M256,63.2L256,63.2c0.2-0.3,0.2-0.7,0-1C255.8,62.5,255.7,62.9,256,63.2z"/>
		<path class="st3" d="M76.8,84.9c0-0.3,0.5-0.6,0.2-0.9c-0.3-0.3-0.6,0.2-1,0.2c-0.1,0-0.1,0.1-0.2,0.1
			C76.2,84.5,76.6,84.6,76.8,84.9z"/>
		<path class="st3" d="M76.8,84.9c-0.2-0.3-0.6-0.4-0.9-0.6C76,84.9,76.2,85.2,76.8,84.9z"/>
		<path class="st3" d="M146.2,77.4c0.5,0,0.3-0.6,0.4-0.9c0-0.3-0.4-0.4-0.6-0.5c-0.2-0.1-0.4,0.2-0.3,0.5
			C145.9,76.8,145.8,77.4,146.2,77.4z"/>
		<path class="st3" d="M121.5,84c0.1,0,0.2,0,0.3,0.1c0-0.1,0-0.2,0-0.2c0-0.5,0.5-0.5,0.9-0.4c-0.2-0.1-0.4-0.2-0.6-0.3
			c-0.2,0.1-0.4,0.2-0.6,0.3c-0.1,0-0.1,0-0.2,0C121.5,83.7,121.6,83.8,121.5,84z"/>
		<path class="st3" d="M121.5,84c0,0.1,0,0.1-0.1,0.2c0.4,0.1,0.4,0.6,0.7,0.8l0,0c-0.2-0.2-0.2-0.6-0.3-0.8
			C121.8,84.1,121.6,84,121.5,84z"/>
		<path class="st3" d="M121.8,83.9c0,0.1,0,0.1,0,0.2c0.1,0.1,0.2,0.2,0.4,0.2c0,0,0-0.1,0-0.1c-0.3-0.7,0.2-0.7,0.6-0.8
			C122.3,83.4,121.8,83.4,121.8,83.9z"/>
		<path class="st3" d="M122.2,84.4c-0.1-0.1-0.2-0.2-0.4-0.2c0,0.3,0.1,0.6,0.3,0.8C122.1,84.8,122.2,84.6,122.2,84.4z"/>
		<path class="st3" d="M121.5,84c0.1-0.2,0-0.4-0.2-0.6c0,0.2,0,0.4,0.1,0.6C121.4,84.1,121.5,84,121.5,84z"/>
		<path class="st3" d="M121.4,84.1c0,0,0,0.1,0,0.1c0-0.1,0.1-0.1,0.1-0.2C121.5,84,121.4,84.1,121.4,84.1z"/>
		<path class="st3" d="M255.4,63.6c-0.2,0-0.4,0-0.6-0.1c-0.2-0.3,0.1-0.3,0.2-0.5c0.1-0.2,0.1-0.5,0.4-0.7
			c-0.2-0.1-0.3-0.4-0.6-0.3c-0.1,0-0.1,0.2-0.1,0.3c0.2,0.3,0.3,0.6-0.2,0.8c-0.2,0.1,0.1,0.4,0.2,0.5c0.5,0.2,0.9,0.2,1.2-0.3l0,0
			C255.9,63.4,255.7,63.5,255.4,63.6z"/>
		<polygon class="st3" points="256,63.2 256,63.2 256,63.2 		"/>
		<ellipse transform="matrix(0.5621 -0.827 0.827 0.5621 59.8364 239.4095)" class="st3" cx="256" cy="63.2" rx="0" ry="0"/>
		<path class="st3" d="M255.1,62.9c-0.1,0.1-0.4,0.2-0.2,0.5c0.1,0.2,0.4,0.3,0.6,0.3c0.3,0,0.4-0.2,0.6-0.2h-0.2v-0.3
			c0,0.3-0.6,0.4-1,0.1c0.3-0.3,0.6-0.6,0.6-1C255.1,62.4,255.2,62.7,255.1,62.9z"/>
		<polygon class="st3" points="256,63.2 256,63.2 256,63.2 		"/>
		<ellipse transform="matrix(0.6623 -0.7493 0.7493 0.6623 39.1073 213.1621)" class="st3" cx="256" cy="63.2" rx="0" ry="0"/>
		<path class="st3" d="M152.6,113.2c-0.3,0.3-0.4,0.7-0.2,1.2h0C152.7,114,152.8,113.6,152.6,113.2z"/>
		<path class="st3" d="M153.2,114.2c0.2-0.3-0.1-0.6-0.3-0.8c-0.1-0.1-0.2-0.1-0.3-0.2c0.1,0.4,0.1,0.8-0.2,1.2
			C152.7,114.3,153,114.5,153.2,114.2z"/>
		<path class="st3" d="M252,64.8c-1.5-0.4-3-0.5-4.4,0.4C249,64.5,250.5,64.5,252,64.8z"/>
		<path class="st3" d="M252,64.8c-1.5-0.3-3-0.3-4.4,0.4C249,64.7,250.5,64.7,252,64.8z"/>
		<path class="st3" d="M121.2,87.4c-0.1-0.1-0.2-0.3-0.3-0.4c0.2,0.3,0,0.5-0.1,0.7c0.4-0.1,0.9-0.3,1.1,0.4c0.5,0,0.8-0.2,0.5-0.7
			C122,88.1,121.6,87.6,121.2,87.4z"/>
		<path class="st3" d="M121.2,87.4c0.4,0.2,0.8,0.6,1.1,0c-0.5,0-1-0.1-1.4-0.4C121.1,87.2,121.1,87.4,121.2,87.4z"/>
		<path class="st3" d="M123.1,86.1c0-0.4,0.6-0.8,0.3-1.1c-0.2-0.2-0.6,0.3-0.9,0.5C122.8,85.6,122.9,85.9,123.1,86.1z"/>
		<path class="st3" d="M123.1,86.1c-0.2-0.2-0.3-0.6-0.6-0.6C122.5,85.9,122.5,86.3,123.1,86.1z"/>
		<path class="st3" d="M121.2,84.6c-0.5,0.2-0.2,0.7-0.3,1.1C121.5,85.5,121.2,85,121.2,84.6z"/>
		<path class="st3" d="M121.8,85.6c0.2-0.3-0.1-0.5-0.2-0.7c-0.1-0.1-0.2-0.2-0.3-0.3c-0.1,0.4,0.2,0.8-0.3,1.1
			C121.2,85.8,121.5,85.9,121.8,85.6z"/>
		<path class="st3" d="M152.8,111.9c-0.2,0.3-0.8,0.1-0.7,0.6c0,0.4,0.4,0.3,0.7,0.4c0-0.3,0.1-0.5,0.2-0.6
			C152.9,112.2,152.8,112.1,152.8,111.9z"/>
		<path class="st3" d="M153.2,112.2c-0.1,0-0.2,0-0.2,0c-0.2,0.2-0.3,0.4-0.2,0.6C153.2,112.9,153.2,112.5,153.2,112.2z"/>
		<path class="st3" d="M153,112.2c0,0,0.1-0.1,0.1-0.1c-0.1-0.1-0.2-0.1-0.3-0.2C152.8,112.1,152.9,112.2,153,112.2z"/>
		<path class="st3" d="M153,112.2c0.1,0,0.1,0,0.2,0c0,0-0.1-0.1-0.1-0.1C153.1,112.2,153,112.2,153,112.2z"/>
		<path class="st3" d="M76.4,86.3c0.3,0.1,0.7,0.2,1,0.1c0.4-0.1,0.1-0.3,0-0.4C77.2,86.4,76.6,85.9,76.4,86.3z"/>
		<path class="st3" d="M76.4,86.3c0.2-0.5,0.8,0.1,1-0.4C76.5,85.6,76.4,85.6,76.4,86.3z"/>
		<path class="st3" d="M183.8,72.5c0.3,0.2,0.7,0.2,1.1,0.2c0.4-0.1,0.2-0.3,0.1-0.4C184.6,72.6,184.1,72.2,183.8,72.5z"/>
		<path class="st3" d="M183.8,72.5c0.3-0.3,0.8,0.1,1.1-0.3C184.5,72.1,184,71.5,183.8,72.5z"/>
		<path class="st3" d="M257.5,65.1c-0.1-0.1-0.2-0.3-0.2-0.5c-0.3,0.2,0.1,0.6-0.3,0.8c0.2,0.4,0.5,0.6,0.8,0.4
			C258.1,65.5,257.7,65.3,257.5,65.1z"/>
		<path class="st3" d="M257.3,64.6c-1.1-0.1-0.1,0.6-0.3,0.8C257.4,65.3,257,64.8,257.3,64.6z"/>
		<path class="st3" d="M193,88.6c-0.1,0-0.2,0.2-0.2,0.4c0.1,0.3,0.1,0.7,0.5,0.6c0.2,0,0.4,0,0.4-0.4
			C193.5,89.1,193.4,88.7,193,88.6z"/>
		<path class="st3" d="M293.4,61.1c0.2,0.1,0.4,0.2,0.7,0.1C293.9,61,293.7,60.8,293.4,61.1z"/>
		<path class="st3" d="M293.1,60c-0.4,0.3,0.2,0.7,0.3,1c0.3-0.3,0.5-0.1,0.7,0.1c-0.1-0.2-0.1-0.4-0.2-0.5
			C293.5,60.6,293.5,59.8,293.1,60z"/>
		<path class="st3" d="M214.8,88.9c-0.2-0.2-0.5-0.3-0.7-0.4C214.1,89,214.2,89.4,214.8,88.9z"/>
		<path class="st3" d="M214.5,88c-0.4-0.1-0.2,0.4-0.4,0.5c0.3,0.1,0.5,0.2,0.7,0.4C215,88.5,214.8,88.1,214.5,88z"/>
		<path class="st3" d="M215.6,89.3c0.4,0,0.6-0.3,0.8-0.6C215.9,88.7,215.8,89,215.6,89.3z"/>
		<path class="st3" d="M216.1,88.3c-0.4,0.2-0.8,0.5-0.5,1c0.2-0.2,0.4-0.6,0.8-0.6C216.4,88.5,216.8,88,216.1,88.3z"/>
		<path class="st3" d="M153.9,115c0.7-0.1,0.8-0.7,1.1-1.2C154.5,114.1,154.2,114.5,153.9,115z"/>
		<path class="st3" d="M153.9,115c0.3-0.4,0.6-0.9,1.1-1.2C154.4,114,153.7,114,153.9,115z"/>
		<path class="st3" d="M78.6,84.5C78.6,84.5,78.6,84.5,78.6,84.5L78.6,84.5C78.6,84.5,78.6,84.5,78.6,84.5z"/>
		<path class="st3" d="M79.8,84.1c-0.6-0.2-1.2-0.5-1.2,0.4C79.1,84.8,79.4,84.5,79.8,84.1z"/>
		<polygon class="st3" points="78.6,84.5 78.6,84.5 78.6,84.5 		"/>
		<polygon class="st3" points="78.6,84.5 78.6,84.5 78.6,84.5 78.6,84.5 		"/>
		<path class="st3" d="M148.8,76.3c0.4-0.3,0.6-0.5,0-0.9l0,0h0C149,75.7,148.7,76,148.8,76.3z"/>
		<path class="st3" d="M148.8,76.3c-0.1-0.3,0.2-0.6,0-0.9h0c-0.3,0.3-0.5,0.5-0.8,0.8C148.3,76.4,148.6,76.3,148.8,76.3z"/>
		<path class="st3" d="M256.2,63.4c0,0.3-0.6,0.6-0.1,0.9C256.1,64,256.6,63.7,256.2,63.4z"/>
		<path class="st3" d="M256.8,63.7c0.1-0.2,0.1-0.4-0.1-0.5c-0.2-0.1-0.3,0.1-0.5,0.2c0.3,0.3-0.1,0.6-0.1,0.9
			C256.5,64.2,256.7,64,256.8,63.7z"/>
		<path class="st3" d="M215.4,90.6c0.1,0.3,0.4,0.4,0.6,0.4c0.2,0.1,0.5-0.2,0.4-0.3c-0.5-0.2-0.7-0.4-0.4-0.9c-0.1,0-0.2,0-0.3-0.1
			C215.7,90.1,215.7,90.4,215.4,90.6z"/>
		<path class="st3" d="M215.6,89.8c-0.1,0.3-0.2,0.5-0.3,0.8C215.7,90.4,215.7,90.1,215.6,89.8z"/>
		<path class="st3" d="M292.3,59.6c0.3-0.3,0.4-0.8,0.7-1.1C292.2,58.5,292.3,59.1,292.3,59.6z"/>
		<path class="st3" d="M293,58.5c-0.3,0.3-0.4,0.8-0.7,1.1l0,0C293,59.5,293,59,293,58.5z"/>
		<path class="st3" d="M191.7,89.1c0.1,0.5,0.1,0.9-0.1,1.3c0.2,0,0.3-0.1,0.5-0.1C192.7,89.7,192,89.5,191.7,89.1z"/>
		<path class="st3" d="M121.9,88.2c-0.3-0.2-0.8-0.1-1.1-0.4C121.1,88.2,121.3,88.7,121.9,88.2z"/>
		<path class="st3" d="M120.8,87.8c0.3,0.3,0.7,0.2,1.1,0.4C121.7,87.5,121.2,87.7,120.8,87.8z"/>
		<path class="st3" d="M215.5,91.9c0.2,0.6,0.5,0.8,0.9,0.9c0,0,0.2-0.2,0.2-0.3C216.4,91.9,215.9,92.2,215.5,91.9z"/>
		<path class="st3" d="M78.2,84.4c0-0.1,0-0.2,0-0.3c-0.3,0.2-0.5,0.2-0.7-0.1c0,0.3-0.1,0.6-0.1,0.9C77.7,84.9,77.7,84.3,78.2,84.4
			z"/>
		<path class="st3" d="M78.2,84.4L78.2,84.4c-0.4-0.2-0.5,0.5-0.8,0.4C77.8,85.2,78,84.8,78.2,84.4z"/>
		<path class="st3" d="M78.1,84.1c-0.2,0-0.5-0.1-0.7-0.1C77.6,84.3,77.8,84.3,78.1,84.1z"/>
		<path class="st3" d="M295.3,64.1c-0.2,0-0.3,0.1-0.3,0.3c0,0.3,0.2,0.5,0.5,0.6c0.3,0,0.3-0.1,0.3-0.3
			C295.7,64.4,295.6,64.2,295.3,64.1z"/>
		<path class="st3" d="M85.5,101.3c0.1,0,0.3,0,0.3-0.1c0.1-0.2-0.1-0.3-0.2-0.4c-0.1-0.2-0.2-0.4-0.4-0.6c-0.2,0.3-0.1,0.6-0.1,0.8
			C85.2,101.1,85.3,101.3,85.5,101.3z"/>
		<path class="st3" d="M193.1,87.5c0.1,0,0.2-0.1,0.3-0.1c0.1-0.2-0.1-0.2-0.2-0.3c-0.1-0.2-0.3-0.4-0.4-0.6c-0.1,0-0.1,0-0.2,0.1
			c0,0.2,0,0.5,0.1,0.7C192.7,87.4,192.9,87.5,193.1,87.5z"/>
		<path class="st3" d="M259.1,68.8c-0.2,0-0.3,0.2-0.3,0.4c0.1,0.2,0.2,0.5,0.5,0.5c0.2,0,0.3-0.2,0.2-0.4
			C259.5,69.1,259.4,68.7,259.1,68.8z"/>
		<path class="st3" d="M73.1,87.7c0.3-0.1,0.4-0.3,0.4-0.6c0-0.2-0.1-0.4-0.2-0.3c-0.3,0.1-0.4,0.3-0.5,0.6
			C72.7,87.7,72.9,87.8,73.1,87.7z"/>
		<path class="st3" d="M85.6,103.5c0.8-0.2,0.8-0.2,0.3-0.9C85.7,102.9,86,103.3,85.6,103.5z"/>
		<path class="st3" d="M85.8,102.6c-0.8,0.1-0.1,0.6-0.3,0.9C86,103.3,85.7,102.9,85.8,102.6z"/>
		<path class="st3" d="M215.6,91.2c-0.1-0.3-0.3-0.4-0.6-0.4c-0.2,0-0.4,0.2-0.4,0.4c0.1,0.3,0.4,0.3,0.6,0.3
			C215.4,91.5,215.6,91.5,215.6,91.2z"/>
		<path class="st3" d="M216.2,83.2c0.1,0.1,0.3,0,0.3,0c0.2-0.4-0.1-0.6-0.4-1.1C216.1,82.6,215.9,82.9,216.2,83.2z"/>
		<path class="st3" d="M180.6,74c0.3,0,0.4-0.3,0.4-0.6c0-0.2,0-0.3-0.3-0.3c-0.2,0.1-0.4,0.3-0.4,0.6C180.2,73.9,180.4,74,180.6,74
			z"/>
		<path class="st3" d="M192.1,90.4c-0.1,0.2-0.3,0.2-0.5,0.1c0,0.8,0.6,0.2,0.9,0.5C192.5,90.6,192.4,90.4,192.1,90.4z"/>
		<path class="st3" d="M192.1,90.4c-0.2,0-0.3,0.1-0.5,0.1C191.8,90.6,192,90.6,192.1,90.4z"/>
		<path class="st3" d="M84.1,104.2c0,0.7,0.6,0.5,0.9,0.4c0.3-0.1-0.1-0.3-0.2-0.5C84.6,104.4,84.3,104.4,84.1,104.2z"/>
		<path class="st3" d="M84.8,104.2c-0.2,0-0.5,0.1-0.7,0.1C84.3,104.4,84.6,104.4,84.8,104.2z"/>
		<path class="st3" d="M291.8,60.1c-0.2-0.1-0.2-0.7-0.6-0.3c-0.3,0.3-0.1,0.4,0.2,0.6c0.2,0.1-0.1,0.5,0.2,0.6
			C291.4,60.6,291.5,60.3,291.8,60.1z"/>
		<path class="st3" d="M291.6,60.9c0.1-0.3,0.2-0.6,0.2-0.9C291.5,60.3,291.4,60.6,291.6,60.9z"/>
		<path class="st3" d="M154.6,104.7c0,0,0.1,0.2,0.2,0.2c0.3-0.2,0.4-0.5,0.6-1C154.8,104,154.6,104.3,154.6,104.7z"/>
		<path class="st3" d="M221.2,94.4c0.4,0.2,0.7,0.2,0.9-0.1c0-0.1,0-0.2,0-0.2C221.8,94,221.6,94.2,221.2,94.4z"/>
		<path class="st3" d="M192.4,88.2c-0.1,0-0.3,0.1-0.3,0.1c-0.1,0.3,0.2,0.5,0.4,0.7C192.7,88.6,192.7,88.3,192.4,88.2z"/>
		<path class="st3" d="M150.4,76.5c0.2-0.1,0.3-0.3,0.3-0.5c0-0.2-0.1-0.4-0.3-0.3c-0.2,0-0.3,0.2-0.2,0.4
			C150.2,76.3,150.2,76.5,150.4,76.5z"/>
		<path class="st3" d="M122.2,83.2c0-0.4-0.2-0.6-0.5-0.4c-0.4,0.1-0.2,0.5-0.1,0.7C121.7,83.3,121.9,83.1,122.2,83.2z"/>
		<path class="st3" d="M121.5,83.5c0.2-0.1,0.4-0.2,0.6-0.3C121.9,83.1,121.7,83.3,121.5,83.5z"/>
		<path class="st3" d="M192.3,85.8c0.2,0,0.3-0.1,0.3-0.3c0-0.2-0.1-0.4-0.3-0.4c-0.2,0-0.3,0.1-0.3,0.3
			C192.1,85.6,192.1,85.8,192.3,85.8z"/>
		<path class="st3" d="M152.2,74.8c0.2-0.1,0.5-0.1,0.5-0.4c0-0.2-0.2-0.2-0.3-0.2c-0.2,0-0.4,0.1-0.4,0.4
			C151.9,74.8,152,74.8,152.2,74.8z"/>
		<path class="st3" d="M53.7,80.9c0.2,0.2,0,0.5-0.3,0.7c-0.4,0.3-0.8,0.4-1.2-0.1c0.1,0.4,0.3,0.6,0.8,0.5c0.1,0,0.4-0.2,0.4,0.1
			c0.1,0.2-0.2,0.3-0.3,0.4c0.6-0.1,1,0,0.8,0.7c0.2-0.2,0.3-0.4,0.2-0.6c-0.3-0.5,0.1-0.6,0.3-0.9c-0.8-0.4,0.2-0.9-0.1-1.3
			c0-0.1,0.3,0,0.4,0c-0.1-0.4,0.7-0.5,0.4-1c0-0.7-0.3-0.9-0.9-0.5c-0.2,0.1-0.4,0.2-0.5,0.2l0,0c-0.4,0.4-1,0.2-1.3,0.7
			c0.1,0,0.1,0,0.2,0c0.4-0.1,0.7-0.3,1.1,0c0,0,0,0.3,0,0.3c-0.4,0.1-0.9,0.5-1.3,0c-0.1,0.2,0,0.4,0.1,0.5c0,0,0.1,0,0.1,0
			C53,80.4,53.5,80.5,53.7,80.9z"/>
		<path class="st3" d="M54.4,78.6c0.3-0.2,0.6-0.4,1-0.1c0.4,0.3,0.2,0.6,0,0.9c1-0.4,1.4-1.1,1.1-2.2c-0.1-0.3-0.2-0.4-0.4-0.5
			c-0.3-0.1-0.3,0.2-0.3,0.4c-0.1,0.3-0.3,0.2-0.6,0.3c-0.8,0.2-1.4,1.1-1.2,1.7h0C54,79,54.1,78.8,54.4,78.6z"/>
		<path class="st3" d="M54.5,78.9c0.6-0.4,0.9-0.2,0.9,0.5c0.2-0.3,0.3-0.6,0-0.9c-0.4-0.3-0.6-0.1-1,0.1c-0.3,0.1-0.4,0.3-0.5,0.6
			h0l0,0C54.1,79.1,54.3,79.1,54.5,78.9z"/>
		<path class="st3" d="M35.4,93.1c-0.7,0.1-1,0.3-0.4,0.9c0.3,0.3,0,0.4-0.1,0.6c0.3,0.1,0.6,0.2,1,0.2c0.3,0,0.3,0.2,0.4,0.4
			c0.1,0.1,0.3,0.1,0.4,0c-0.6-0.5,0.2-1-0.1-1.5c-0.1-0.1-0.3-0.3-0.1-0.5c-0.1-0.1-0.1-0.1-0.2-0.2C36,92.9,35.7,93,35.4,93.1z"/>
		<path class="st3" d="M17.8,87.2c-0.1-0.3,0.1-0.7,0.5-0.8c0-0.2,0-0.6-0.3-0.6c-0.6,0.1-0.4,0.7-0.5,1c-0.5,0-0.3-0.6-0.7-0.7
			c-0.4,0.4-0.7,0.8-1.1,1.2c0.3-0.2,0.6-0.1,0.9,0.1c0.2-0.4,0.4-0.3,0.6,0c0.1,0.2,0,0.6,0.4,0.4c0.3-0.1,0.8-0.1,0.8-0.7
			C18.2,87.5,17.8,87.6,17.8,87.2z"/>
		<path class="st3" d="M52.3,81.5c0.4-0.2,0.7-0.4,0.2-0.9C52.3,80.9,52.2,81.2,52.3,81.5z"/>
		<path class="st3" d="M52.3,81.5c0.4,0.5,0.8,0.4,1.2,0.1c0.3-0.2,0.4-0.4,0.3-0.7c-0.3-0.4-0.7-0.5-1.2-0.3c0,0-0.1,0-0.1,0
			C53,81.1,52.6,81.3,52.3,81.5z"/>
		<path class="st3" d="M50.5,102.7c-0.2,0.9-0.9,0.1-1.4,0.3c0.2,0.4,0.9,0.5,0.7,1h0c0.2,0,0.4-0.1,0.7-0.1c0-0.2,0-0.5,0.4-0.4
			c0.6,0.1,0.6,0.1,0.6-0.6C51,103.2,50.8,102.9,50.5,102.7z"/>
		<path class="st3" d="M36.3,90.7c0.3,0,0.4,0.2,0.3,0.4c-0.1,0.2-0.2,0.4-0.2,0.6c0.7,0.1,1.1-0.5,1.2-0.9c0.1-0.4-0.6-0.4-0.9-0.5
			C36.6,90.4,36.4,90.5,36.3,90.7L36.3,90.7z"/>
		<path class="st3" d="M35.2,91.2c-0.1,0.2-0.1,0.4-0.2,0.6c-0.1,0.3-0.2,0.7,0.4,0.8c0.6,0.1,0.7-0.3,0.6-0.8
			C35.9,91.4,35.6,91.3,35.2,91.2z"/>
		<path class="st3" d="M36.3,92.8c0.1,0,0.2,0.1,0.2,0.2c0.9,0.2,0.9-0.6,1.4-1.1C37.1,91.9,36.6,92.2,36.3,92.8z"/>
		<path class="st3" d="M36.3,92.8c0.1,0.1,0.1,0.1,0.2,0.2C36.5,92.9,36.5,92.9,36.3,92.8z"/>
		<path class="st3" d="M51.4,102.9c0.1-0.9-0.6-0.9-1.2-0.9c0,0.2,0.1,0.4,0.1,0.6c0.1,0,0.1,0.1,0.2,0.1
			C50.9,102.4,51.2,102.6,51.4,102.9z"/>
		<path class="st3" d="M51.4,102.9c-0.2-0.3-0.5-0.5-0.9-0.2C50.8,102.9,51,103.2,51.4,102.9z"/>
		<path class="st3" d="M53.2,82.5c-0.2,0-0.5-0.2-0.5,0.2c0,0.5,0.8,0.8,1.2,0.6C53.7,83,53.2,83,53.2,82.5z"/>
		<path class="st3" d="M53.2,82.5c0,0.5,0.5,0.5,0.8,0.7C54.2,82.5,53.8,82.4,53.2,82.5z"/>
		<path class="st3" d="M35.8,90.5c0.1,0,0.1,0,0.2,0.1c0,0,0,0,0,0c0.1-0.3,0.4-0.4,0.7-0.3c0-0.2,0-0.5,0.1-0.7
			c-0.2,0.1-0.2,0.4-0.5,0.4c-0.2-0.3,0-0.6,0-0.8c-0.2,0-0.4,0-0.5,0.1c0,0.3,0.1,0.6,0.1,0.9C35.8,90.2,35.8,90.4,35.8,90.5z"/>
		<path class="st3" d="M36,90.5C36,90.6,36,90.6,36,90.5c0.1,0.1,0.2,0.1,0.2,0.1h0l0,0c0.1-0.1,0.3-0.3,0.4-0.4
			C36.4,90.2,36.2,90.3,36,90.5z"/>
		<path class="st3" d="M36,90.8c-0.1,0-0.2,0-0.3-0.1c0,0,0,0,0-0.1c-0.1,0.1-0.2,0.1-0.3,0.2c0,0.1-0.1,0.2-0.1,0.4
			c0.7-0.2,0.8-0.1,0.8,0.6c0.1,0,0.2-0.1,0.3-0.1C36,91.5,36,91.1,36,90.8z"/>
		<path class="st3" d="M36.5,91.1c0.1-0.3,0.1-0.4-0.3-0.4c-0.1,0.1-0.2,0.1-0.2,0.1c0,0.3,0,0.7,0.3,0.9
			C36.3,91.5,36.4,91.3,36.5,91.1z"/>
		<path class="st3" d="M35.2,91.2c0.3,0.1,0.7,0.2,0.8,0.6C36.1,91.1,36,91,35.2,91.2z"/>
		<path class="st3" d="M35.7,90.7c0.1,0.1,0.2,0.1,0.3,0.1c0-0.1,0-0.1,0-0.2c-0.1,0-0.1,0-0.2-0.1C35.8,90.6,35.7,90.6,35.7,90.7
			C35.7,90.6,35.7,90.7,35.7,90.7z"/>
		<path class="st3" d="M36,90.8c0.1,0,0.2,0,0.2-0.1h0c-0.1,0-0.2,0-0.2-0.1C36,90.7,36,90.7,36,90.8z"/>
		<path class="st3" d="M50.2,100.9c0.2,0,0.3-0.2,0.2-0.3c-0.2-0.4-0.8-0.4-1-0.8c-0.1,0.1-0.2,0.2-0.2,0.3
			C49.2,100.3,49.9,100.9,50.2,100.9z"/>
		<path class="st3" d="M49.8,104L49.8,104c-0.1,0.2-0.3,0.6,0.1,0.6c0.3,0.1,0.7,0,0.9-0.2c0.2-0.2-0.1-0.4-0.3-0.5
			C50.3,104.2,50.1,104.2,49.8,104z"/>
		<path class="st3" d="M50.5,104c-0.2,0-0.4,0.1-0.7,0.1C50.1,104.2,50.3,104.2,50.5,104z"/>
		<path class="st3" d="M52.6,79.9c0,0.1-0.1,0.1-0.1,0.2C52.6,80.1,52.7,80.1,52.6,79.9z"/>
		<path class="st3" d="M53.8,80.1c0,0,0.1-0.3,0-0.3c-0.4-0.2-0.7,0-1.1,0c-0.1,0-0.1,0-0.2,0c0.1,0.2,0,0.2-0.1,0.2
			C52.9,80.6,53.3,80.2,53.8,80.1z"/>
		<path class="st3" d="M35.3,90.8c0-0.2,0.1-0.3,0.3-0.3c0-0.1-0.1-0.2-0.1-0.4c-0.1,0.1-0.3,0.1-0.5,0h0c-0.3-0.2-0.5,0-0.5,0.3
			C34.6,90.9,35,90.8,35.3,90.8z"/>
		<path class="st3" d="M35.8,90.5c0-0.2,0-0.3-0.1-0.5c-0.1,0-0.1,0.1-0.2,0.1c0,0.1,0,0.3,0.1,0.4C35.7,90.5,35.7,90.5,35.8,90.5z"
			/>
		<path class="st3" d="M35.6,90.5c-0.1,0-0.2,0.1-0.3,0.3C35.4,90.8,35.6,90.7,35.6,90.5C35.6,90.6,35.6,90.6,35.6,90.5z"/>
		<path class="st3" d="M35.8,90.5c-0.1,0-0.1,0-0.2,0c0,0,0,0.1,0.1,0.1C35.7,90.6,35.8,90.6,35.8,90.5z"/>
		<path class="st3" d="M54.6,81.8c0.5-0.3,0.1-0.9,0.4-1.3C54.5,80.8,54.7,81.3,54.6,81.8z"/>
		<path class="st3" d="M54.5,80.5c0.3,0.4-0.7,0.9,0.1,1.3c0.1-0.4-0.1-0.9,0.4-1.3C54.8,80.5,54.5,80.4,54.5,80.5z"/>
		<path class="st3" d="M35.5,96c-0.3,0-0.1,0.4-0.2,0.6c0.1,0.2,0,0.6,0.4,0.6c0.2,0,0.4-0.2,0.3-0.5C35.9,96.3,35.8,95.9,35.5,96z"
			/>
		<path class="st3" d="M34.9,94.6c-0.2,0.6,0.3,0.7,0.7,0.8c0.4,0,0.4-0.3,0.3-0.5C35.4,95.1,35.2,94.9,34.9,94.6z"/>
		<path class="st3" d="M35.8,94.8c-0.3-0.1-0.6-0.2-1-0.2C35.2,94.9,35.4,95.1,35.8,94.8z"/>
		<path class="st3" d="M15.7,87.4c0,0.3,0.3,0.3,0.5,0.5c0.6,0.4,0.6,0.1,0.4-0.4C16.3,87.8,16,87.5,15.7,87.4z"/>
		<path class="st3" d="M15.7,87.4c0.3,0.1,0.6,0.4,0.9,0.1C16.4,87.3,16.1,87.2,15.7,87.4z"/>
		<path class="st3" d="M18.4,87.3c0-0.3-0.1-0.6-0.1-0.9C18.1,86.7,17.9,87.1,18.4,87.3z"/>
		<path class="st3" d="M18.3,86.4c-0.5,0.1-0.6,0.5-0.5,0.8c0.1,0.3,0.4,0.3,0.7,0.1C17.9,87.1,18.1,86.7,18.3,86.4z"/>
		<path class="st3" d="M50.3,102c-0.2-0.1-0.4-0.4-0.7-0.2c-0.2,0.1-0.1,0.3,0.1,0.4c0.2,0.1,0.1,0.8,0.7,0.3
			C50.2,102.4,50.1,102.2,50.3,102z"/>
		<path class="st3" d="M50.3,102.6c0-0.2-0.1-0.4-0.1-0.6C50.1,102.2,50.2,102.4,50.3,102.6z"/>
		<path class="st3" d="M36.8,89.5c-0.3-0.2-0.1-0.5-0.2-0.8c-0.2,0.2-0.3,0.3-0.4,0.4C36.4,89.2,36.5,89.6,36.8,89.5z"/>
		<path class="st3" d="M36.2,89.9c0.3,0,0.4-0.3,0.5-0.4c-0.3,0-0.4-0.3-0.6-0.4C36.3,89.4,36,89.7,36.2,89.9z"/>
		<path class="st3" d="M20,82.9c-0.2,0.1-0.4,0.3-0.4,0.5c0,0.2,0.2,0.2,0.3,0.2c0.2-0.1,0.3-0.3,0.3-0.5
			C20.3,82.9,20.2,82.9,20,82.9z"/>
		<path class="st3" d="M35.5,90c0-0.3-0.1-0.6,0.1-0.9c-0.7,0.1-0.1,0.8-0.6,1h0C35.3,90.2,35.4,90.1,35.5,90z"/>
		<path class="st3" d="M35.5,90c0.1,0,0.1,0,0.2,0c0-0.3-0.1-0.6-0.1-0.9C35.5,89.4,35.6,89.7,35.5,90z"/>
		<path class="st3" d="M35.5,90.2C35.5,90.1,35.5,90.1,35.5,90.2c0-0.1,0-0.1,0-0.1c-0.2,0-0.3,0.2-0.5,0.1
			C35.3,90.3,35.4,90.2,35.5,90.2z"/>
		<path class="st3" d="M35.5,90C35.5,90,35.5,90.1,35.5,90c0,0.1,0,0.1,0,0.1c0.1,0,0.1-0.1,0.2-0.1C35.7,90,35.6,90,35.5,90z"/>
		<path class="st3" d="M185.4,70.3c0.2,0,0.3-0.2,0.2-0.4c-0.2-0.2,0.1-0.7-0.5-0.7c-0.3,0-0.4,0.2-0.3,0.5
			C184.9,70,185,70.4,185.4,70.3z"/>
		<g>
			<g>
				<g>
					<g>
						<rect x="69" y="160" class="st4" width="210.9" height="23.8"/>
						<text transform="matrix(1 0 0 1 69.0391 173.0031)" class="st3 st5 st6 st7">BELT company</text>
					</g>
				</g>
			</g>
		</g>
		<text transform="matrix(1 0 0 1 136.0566 24.0646)" class="st3 st8 st6 st7">the</text>
		<g>
			<g>
				<line class="st9" x1="6.9" y1="40.5" x2="8" y2="40.5"/>
				<line class="st10" x1="10.3" y1="40.5" x2="305.7" y2="40.5"/>
				<line class="st9" x1="306.9" y1="40.5" x2="308" y2="40.5"/>
			</g>
		</g>
		<g>
			<g>
				<line class="st9" x1="6.9" y1="142.1" x2="8" y2="142.1"/>
				<line class="st10" x1="10.3" y1="142.1" x2="305.7" y2="142.1"/>
				<line class="st9" x1="306.9" y1="142.1" x2="308" y2="142.1"/>
			</g>
		</g>
		<g>
			<g>
				<rect x="185.3" y="14.3" class="st2" width="10.6" height="1"/>
				<rect x="185.3" y="17.2" class="st2" width="14.9" height="1"/>
				<rect x="185.3" y="20" class="st2" width="10.6" height="1"/>
			</g>
			<g>
				
					<rect x="118.4" y="14.3" transform="matrix(-1 -1.224647e-16 1.224647e-16 -1 247.476 29.5813)" class="st2" width="10.6" height="1"/>
				
					<rect x="114.1" y="17.2" transform="matrix(-1 -1.224647e-16 1.224647e-16 -1 243.1939 35.2989)" class="st2" width="14.9" height="1"/>
				
					<rect x="118.4" y="20" transform="matrix(-1 -1.224647e-16 1.224647e-16 -1 247.476 41.0164)" class="st2" width="10.6" height="1"/>
			</g>
		</g>
	</g>
	<g>
		<path class="st3" d="M31.2,164.2l0.9,1.9c0,0.1,0.1,0.2,0.2,0.2l2.1,0.3c0.3,0,0.4,0.4,0.2,0.5l-1.5,1.5c-0.1,0.1-0.1,0.2-0.1,0.3
			l0.4,2.1c0,0.3-0.2,0.5-0.5,0.3l-1.9-1c-0.1,0-0.2,0-0.3,0l-1.9,1c-0.2,0.1-0.5-0.1-0.5-0.3l0.4-2.1c0-0.1,0-0.2-0.1-0.3l-1.5-1.5
			c-0.2-0.2-0.1-0.5,0.2-0.5l2.1-0.3c0.1,0,0.2-0.1,0.2-0.2l0.9-1.9C30.7,164,31.1,164,31.2,164.2z"/>
		<path class="st3" d="M284.4,164.2l0.9,1.9c0,0.1,0.1,0.2,0.2,0.2l2.1,0.3c0.3,0,0.4,0.4,0.2,0.5l-1.5,1.5
			c-0.1,0.1-0.1,0.2-0.1,0.3l0.4,2.1c0,0.3-0.2,0.5-0.5,0.3l-1.9-1c-0.1,0-0.2,0-0.3,0l-1.9,1c-0.2,0.1-0.5-0.1-0.5-0.3l0.4-2.1
			c0-0.1,0-0.2-0.1-0.3l-1.5-1.5c-0.2-0.2-0.1-0.5,0.2-0.5l2.1-0.3c0.1,0,0.2-0.1,0.2-0.2l0.9-1.9C283.9,164,284.3,164,284.4,164.2z
			"/>
	</g>
</g>
</svg>
